<?xml version="1.0" encoding="UTF-8" standalone="no"?>
<!-- Created with Inkscape (http://www.inkscape.org/) -->

<svg
   xmlns:dc="http://purl.org/dc/elements/1.1/"
   xmlns:cc="http://creativecommons.org/ns#"
   xmlns:rdf="http://www.w3.org/1999/02/22-rdf-syntax-ns#"
   xmlns:svg="http://www.w3.org/2000/svg"
   xmlns="http://www.w3.org/2000/svg"
   xmlns:sodipodi="http://sodipodi.sourceforge.net/DTD/sodipodi-0.dtd"
   xmlns:inkscape="http://www.inkscape.org/namespaces/inkscape"
   version="1.1"
   id="svg2"
   xml:space="preserve"
   width="666.66669"
   height="666.66669"
   viewBox="0 0 666.66669 666.66669"
   sodipodi:docname="Delivery.svg"
   inkscape:version="0.92.3 (2405546, 2018-03-11)"><metadata
     id="metadata8"><rdf:RDF><cc:Work
         rdf:about=""><dc:format>image/svg+xml</dc:format><dc:type
           rdf:resource="http://purl.org/dc/dcmitype/StillImage" /><dc:title></dc:title></cc:Work></rdf:RDF></metadata><defs
     id="defs6" /><sodipodi:namedview
     pagecolor="#ffffff"
     bordercolor="#666666"
     borderopacity="1"
     objecttolerance="10"
     gridtolerance="10"
     guidetolerance="10"
     inkscape:pageopacity="0"
     inkscape:pageshadow="2"
     inkscape:window-width="1920"
     inkscape:window-height="1025"
     id="namedview4"
     showgrid="false"
     showguides="false"
     inkscape:zoom="0.59046092"
     inkscape:cx="-208.31128"
     inkscape:cy="73.343714"
     inkscape:window-x="0"
     inkscape:window-y="0"
     inkscape:window-maximized="1"
     inkscape:current-layer="g12" /><g
     id="g10"
     inkscape:groupmode="layer"
     inkscape:label="ink_ext_XXXXXX"
     transform="matrix(1.3333333,0,0,-1.3333333,0,666.66667)"><g
       id="g12"
       transform="scale(0.1)"><g
         id="g874"
         inkscape:export-xdpi="364"
         inkscape:export-ydpi="364"><path
           inkscape:connector-curvature="0"
           id="path16"
           style="fill:#f6bcd1;fill-opacity:1;fill-rule:evenodd;stroke:none"
           d="m 4281,2823.27 c 0,-983.62 -797.38,-1781.01 -1781.01,-1781.01 -983.62,0 -1781.006,797.39 -1781.006,1781.01 0,983.62 797.386,1781.01 1781.006,1781.01 983.63,0 1781.01,-797.39 1781.01,-1781.01" /><path
           inkscape:connector-curvature="0"
           id="path18"
           style="fill:#773344;fill-opacity:1;fill-rule:evenodd;stroke:none"
           d="m 2499.99,484.672 c 1001.02,0 1812.49,58.297 1812.49,130.199 0,71.91 -811.47,130.211 -1812.49,130.211 -1001.02,0 -1812.49,-58.301 -1812.49,-130.211 0,-71.902 811.47,-130.199 1812.49,-130.199" /><path
           inkscape:connector-curvature="0"
           id="path20"
           style="fill:#eb3a58;fill-opacity:1;fill-rule:evenodd;stroke:none"
           d="m 865.004,3106.77 h 928.356 c 21.91,0 39.83,-17.92 39.83,-39.82 V 2051.79 c 0,-21.9 -17.92,-39.82 -39.83,-39.82 H 606.133 c -21.914,0 -39.832,17.92 -39.832,39.82 v 756.28 c 0,164.3 134.41,298.7 298.703,298.7" /><path
           inkscape:connector-curvature="0"
           id="path22"
           style="fill:#992c3d;fill-opacity:1;fill-rule:evenodd;stroke:none"
           d="m 1833.19,2871.67 v -48.4 H 566.691 c 0.84,16.51 3.047,32.68 6.5,48.4 H 1833.19" /><path
           inkscape:connector-curvature="0"
           id="path24"
           style="fill:#f8a597;fill-opacity:1;fill-rule:evenodd;stroke:none"
           d="m 2293.97,3492.17 103.71,171.15 58.8,39.24 101.1,-129.12 -6.73,-20.51 c 0,0 -35.62,-8.88 -58.95,-46.91 -23.34,-38.03 -34.57,-87.3 -34.57,-87.3 l -163.36,73.45" /><path
           inkscape:connector-curvature="0"
           id="path26"
           style="fill:#e29584;fill-opacity:1;fill-rule:evenodd;stroke:none"
           d="m 2415.63,3675.29 40.85,27.27 101.1,-129.12 -6.73,-20.51 c 0,0 -35.62,-8.88 -58.95,-46.91 -1.57,-2.55 -3.08,-5.16 -4.54,-7.79 -9.28,9.34 -18.56,19.79 -27.45,31.4 -51,66.55 -36.61,138.93 -36.61,138.93 l -7.67,6.73" /><path
           inkscape:connector-curvature="0"
           id="path28"
           style="fill:#f8a597;fill-opacity:1;fill-rule:evenodd;stroke:none"
           d="m 2800.72,1523.05 c 0,0 -60.61,-190.91 -60.49,-203.99 0.11,-13.07 114.08,-44.95 114.08,-44.95 l 58.77,6.93 c 0,0 -8.64,55.31 8.64,152.1 17.3,96.81 0,126.2 -121,89.91" /><path
           inkscape:connector-curvature="0"
           id="path30"
           style="fill:#462119;fill-opacity:1;fill-rule:evenodd;stroke:none"
           d="m 2076.9,2301.04 c 0,0 -68.78,-152.11 0.37,-200.31 69.15,-48.21 493.25,-112.27 555.89,-83.12 62.62,29.16 68.52,108.52 68.52,108.52 0,0 -163.44,57.71 -624.78,174.91" /><path
           inkscape:connector-curvature="0"
           id="path32"
           style="fill:#2a4c77;fill-opacity:1;fill-rule:evenodd;stroke:none"
           d="m 2007.4,2379.52 c 0,0 -12.09,-162.49 200.52,-223 212.62,-60.5 812.44,-62.22 812.44,-62.22 -87.26,-113.95 -166.47,-280.81 -217.89,-406.17 -82.97,-202.26 -89.9,-236.83 -89.9,-236.83 0,0 49.27,-38.02 116.69,-47.53 67.41,-9.51 121,6.05 121,6.05 67.73,254.74 193.22,528.78 317.85,766.69 l -23.34,59.81 c -176.64,59.99 -800.85,271.09 -898.62,291.82 -114.08,24.22 -338.75,-148.62 -338.75,-148.62" /><path
           inkscape:connector-curvature="0"
           id="path34"
           style="fill:#992c3d;fill-opacity:1;fill-rule:evenodd;stroke:none"
           d="m 3310.52,2542.74 385.52,-1159.28 148.69,66.08 -419.93,1100.08 -114.28,-6.88" /><path
           inkscape:connector-curvature="0"
           id="path36"
           style="fill:#61656a;fill-opacity:1;fill-rule:evenodd;stroke:none"
           d="m 4274.34,1027.54 -245.23,-3.23 106.48,-224.24 -79.05,-46.8 -75.83,224.261 -145.21,-191.992 -77.43,51.633 177.46,175.848 -237.15,88.74 38.71,75.82 204.9,-91.95 30.65,211.34 96.8,-12.91 -53.24,-204.9 232.31,19.36 25.83,-70.98" /><path
           inkscape:connector-curvature="0"
           id="path38"
           style="fill:#4d3d50;fill-opacity:1;fill-rule:evenodd;stroke:none"
           d="m 3986.35,1254.32 c -126.58,0 -229.21,-102.61 -229.21,-229.2 0,-126.589 102.63,-229.222 229.21,-229.222 126.59,0 229.22,102.633 229.22,229.222 0,126.59 -102.63,229.2 -229.22,229.2 z m 0,198.74 c 236.36,0 427.96,-191.59 427.96,-427.96 0,-236.33 -191.6,-427.928 -427.96,-427.928 -236.35,0 -427.93,191.598 -427.93,427.928 0,236.37 191.58,427.96 427.93,427.96 v 0" /><path
           inkscape:connector-curvature="0"
           id="path40"
           style="fill:#8c9295;fill-opacity:1;fill-rule:evenodd;stroke:none"
           d="m 3986.35,1254.32 c -126.58,0 -229.21,-102.61 -229.21,-229.2 0,-126.589 102.63,-229.222 229.21,-229.222 126.59,0 229.22,102.633 229.22,229.222 0,126.59 -102.63,229.2 -229.22,229.2 z m 0,73.68 c 167.3,0 302.89,-135.61 302.89,-302.9 0,-167.268 -135.59,-302.881 -302.89,-302.881 -167.27,0 -302.87,135.613 -302.87,302.881 0,167.29 135.6,302.9 302.87,302.9 v 0" /><path
           inkscape:connector-curvature="0"
           id="path42"
           style="fill:#8c9295;fill-opacity:1;fill-rule:evenodd;stroke:none"
           d="m 3986.37,869.98 c 85.45,0 155.14,69.7 155.14,155.15 0,85.45 -69.69,155.13 -155.14,155.13 -85.45,0 -155.16,-69.68 -155.16,-155.13 0,-85.45 69.71,-155.15 155.16,-155.15" /><path
           inkscape:connector-curvature="0"
           id="path44"
           style="fill:#61656a;fill-opacity:1;fill-rule:evenodd;stroke:none"
           d="m 3986.37,958.941 c 36.45,0 66.17,29.739 66.17,66.189 0,36.44 -29.72,66.17 -66.17,66.17 -36.45,0 -66.19,-29.73 -66.19,-66.17 0,-36.45 29.74,-66.189 66.19,-66.189" /><path
           inkscape:connector-curvature="0"
           id="path46"
           style="fill:#61656a;fill-opacity:1;fill-rule:evenodd;stroke:none"
           d="m 1766.25,1008.26 -245.22,-3.22 106.48,-224.251 -79.05,-46.801 -75.82,224.262 -145.2,-191.98 -77.45,51.621 177.46,175.847 -237.15,88.742 38.72,75.83 204.9,-91.96 30.66,211.34 96.79,-12.9 -53.24,-204.91 232.32,19.37 25.8,-70.99" /><path
           inkscape:connector-curvature="0"
           id="path48"
           style="fill:#4d3d50;fill-opacity:1;fill-rule:evenodd;stroke:none"
           d="m 1478.28,1235.05 c -126.59,0 -229.21,-102.62 -229.21,-229.21 0,-126.598 102.62,-229.219 229.21,-229.219 126.6,0 229.21,102.621 229.21,229.219 0,126.59 -102.61,229.21 -229.21,229.21 z m 0.01,198.73 c 236.35,0 427.93,-191.59 427.93,-427.95 0,-236.338 -191.58,-427.939 -427.93,-427.939 -236.35,0 -427.94,191.601 -427.94,427.939 0,236.36 191.59,427.95 427.94,427.95 v 0" /><path
           inkscape:connector-curvature="0"
           id="path50"
           style="fill:#8c9295;fill-opacity:1;fill-rule:evenodd;stroke:none"
           d="m 1478.28,1235.05 c -126.59,0 -229.21,-102.62 -229.21,-229.21 0,-126.598 102.62,-229.219 229.21,-229.219 126.6,0 229.21,102.621 229.21,229.219 0,126.59 -102.61,229.21 -229.21,229.21 z m 0.01,73.67 c 167.28,0 302.88,-135.6 302.88,-302.89 0,-167.279 -135.6,-302.881 -302.88,-302.881 -167.28,0 -302.89,135.602 -302.89,302.881 0,167.29 135.61,302.89 302.89,302.89 v 0" /><path
           inkscape:connector-curvature="0"
           id="path52"
           style="fill:#8c9295;fill-opacity:1;fill-rule:evenodd;stroke:none"
           d="m 1478.29,850.699 c 85.45,0 155.14,69.699 155.14,155.151 0,85.45 -69.69,155.14 -155.14,155.14 -85.45,0 -155.15,-69.69 -155.15,-155.14 0,-85.452 69.7,-155.151 155.15,-155.151" /><path
           inkscape:connector-curvature="0"
           id="path54"
           style="fill:#61656a;fill-opacity:1;fill-rule:evenodd;stroke:none"
           d="m 1478.29,939.66 c 36.45,0 66.18,29.738 66.18,66.19 0,36.45 -29.73,66.18 -66.18,66.18 -36.45,0 -66.19,-29.73 -66.19,-66.18 0,-36.452 29.74,-66.19 66.19,-66.19" /><path
           inkscape:connector-curvature="0"
           id="path56"
           style="fill:#eb3a58;fill-opacity:1;fill-rule:evenodd;stroke:none"
           d="m 1067.66,1741.76 c -6.88,1.38 -66.09,6.88 -108.769,-16.53 -42.676,-23.4 -70.207,-243.69 -56.446,-275.36 13.758,-31.66 60.625,-17.83 60.625,-17.83 l 104.59,309.72" /><path
           inkscape:connector-curvature="0"
           id="path58"
           style="fill:#929395;fill-opacity:1;fill-rule:evenodd;stroke:none"
           d="m 1336.16,1798.21 c 0,0 -280.88,-4.12 -309.79,-41.3 -28.921,-37.18 -109.057,-347.18 -95.015,-353.85 14.047,-6.66 68.835,-9.64 68.835,-9.64 l 335.97,404.79" /><path
           inkscape:connector-curvature="0"
           id="path60"
           style="fill:#992c3d;fill-opacity:1;fill-rule:evenodd;stroke:none"
           d="m 3448.19,1799.61 c -93.62,300.14 -187.26,541.1 -181.75,600.29 5.52,59.21 213.47,94.86 213.47,94.86 l 50.88,-232.53 63.34,-285.02 -22.03,-316.66 c 0,0 -0.14,-47.59 -9.26,-108.28 v -0.03 c 1.3,-4.75 -0.19,-12.68 -3.81,-22.98 -15.29,-84.46 -48.49,-184.61 -120.54,-219.06 -15.78,-28.14 -25.46,-48.21 -22.11,-51.92 12.56,-13.84 -203.77,-74.34 -203.77,-74.34 l -545.22,-71.6 c 0,0 -250.78,27.54 -278.11,27.54 -27.35,0 -82.61,228.56 -82.61,228.56 l 88.96,4.64 c 0,0 117.56,-73.49 296.53,-67.98 179.01,5.5 489.3,-15.54 568.64,33.04 146.22,89.53 232.95,315.4 187.39,461.47" /><path
           inkscape:connector-curvature="0"
           id="path62"
           style="fill:#eb3a58;fill-opacity:1;fill-rule:evenodd;stroke:none"
           d="m 3479.91,2494.76 c 0,0 359.23,-691.27 341.63,-793.41 -17.62,-102.15 -419.12,-507.2 -549.46,-581.15 -62.37,-35.4 -619.22,-40.15 -1182.99,-35.47 h -0.02 l -0.86,0.01 c -613.98,5.1 -1235.866,21.36 -1235.866,21.36 0,0 80.976,623.43 690.316,827.72 609.34,204.29 1081.31,77.49 1081.31,77.49 0,0 35.22,-123.28 -77.49,-179.63 -287.68,-143.85 -253.14,-485.68 28.83,-608 283.95,-1.24 593.78,-0.13 656.57,9.87 204.25,32.49 324.4,593.76 270.9,751.94 -92.32,272.94 -234.22,272.98 -22.87,509.27" /><path
           inkscape:connector-curvature="0"
           id="path64"
           style="fill:#ffffff;fill-opacity:1;fill-rule:evenodd;stroke:none"
           d="m 3479.91,2494.76 c 0,0 5.27,-10.16 14.45,-28.06 l -21.21,-26.77 0.01,-1.24 -0.01,0.03 c -36.59,-43.89 -76.69,-101.66 -70.87,-151.36 4.07,-34.7 28.71,-75.63 45.47,-105.9 33.93,-61.27 62.51,-119.08 85.08,-185.8 35.76,-105.74 -1.31,-307.38 -30.06,-412.92 -33.72,-123.77 -118.06,-357.01 -265.9,-380.53 -25.71,-4.08 -55.13,-4.84 -81.16,-5.85 -45,-1.78 -90.11,-2.61 -135.15,-3.25 -121.32,-1.73 -242.76,-1.76 -364.11,-1.44 l -14.68,0.05 c -3.88,0.46 -7.6,0.89 -11.14,1.23 -48.01,4.75 -58.32,27.24 -60.18,32.93 1.62,-0.73 3.22,-1.49 4.86,-2.2 283.95,-1.24 593.78,-0.13 656.57,9.87 204.25,32.49 324.4,593.76 270.9,751.94 -92.32,272.94 -234.22,272.98 -22.87,509.27" /><path
           inkscape:connector-curvature="0"
           id="path66"
           style="fill:#992c3d;fill-opacity:1;fill-rule:evenodd;stroke:none"
           d="m 2266.41,1083.59 c -58.66,0.27 -117.95,0.65 -177.32,1.14 h -0.02 l -0.86,0.01 c -435.53,3.62 -874.96,12.84 -1093.64,17.9 319.27,1036.92 1188.85,913.79 1353.1,461.65 -4.35,-51.36 4.87,-103.43 26.89,-152 0.58,-102.14 -32.08,-213.88 -108.15,-328.7" /><path
           inkscape:connector-curvature="0"
           id="path68"
           style="fill:#eb3a58;fill-opacity:1;fill-rule:evenodd;stroke:none"
           d="m 2207.55,1084.73 c -451.68,3.76 -1026.16,13.53 -1235.956,18.45 42.686,146.52 160.666,460.88 496.246,624.58 691.43,337.29 983.01,-277.74 739.71,-643.03" /><path
           inkscape:connector-curvature="0"
           id="path70"
           style="fill:#eb3c61;fill-opacity:1;fill-rule:evenodd;stroke:none"
           d="m 2253.46,1285.66 c 18.93,110.51 -0.06,227.26 -60.58,323.36 -59.11,93.9 -149.67,154.09 -258.26,175.64 -152.7,30.29 -316.34,-18.81 -452.88,-85.41 -67.76,-33.05 -128.53,-73.62 -182.63,-120.41 29.11,16.64 59.59,32.04 91.45,46.07 151.31,66.6 332.65,115.71 501.86,85.39 120.33,-21.55 220.69,-81.73 286.19,-175.62 52.15,-74.75 76.47,-161.96 74.85,-249.02" /><path
           inkscape:connector-curvature="0"
           id="path72"
           style="fill:#4d3d50;fill-opacity:1;fill-rule:evenodd;stroke:none"
           d="m 1159.33,1274.88 h 930.89 c 13.61,0 24.74,-6.51 24.74,-14.46 v 0 c 0,-7.96 -11.13,-14.45 -24.74,-14.45 h -930.89 c -13.61,0 -24.74,6.49 -24.74,14.45 v 0 c 0,7.95 11.13,14.46 24.74,14.46 z m 56.57,49.91 h 930.87 c 13.63,0 24.76,-6.51 24.76,-14.46 v 0 c 0,-7.96 -11.13,-14.46 -24.76,-14.46 H 1215.9 c -13.63,0 -24.75,6.5 -24.75,14.46 v 0 c 0,7.95 11.12,14.46 24.75,14.46 z m -115.48,-99.82 h 930.89 c 13.61,0 24.74,-6.49 24.74,-14.44 v 0 c 0,-7.96 -11.13,-14.47 -24.74,-14.47 h -930.89 c -13.62,0 -24.74,6.51 -24.74,14.47 v 0 c 0,7.95 11.12,14.44 24.74,14.44 v 0" /><path
           inkscape:connector-curvature="0"
           id="path74"
           style="fill:#8c9295;fill-opacity:1;fill-rule:evenodd;stroke:none"
           d="m 3983.48,1053.16 c -11.16,0 -20.2,-9.04 -20.2,-20.2 0,-11.15 9.04,-20.2 20.2,-20.2 11.15,0 20.2,9.05 20.2,20.2 0,11.16 -9.05,20.2 -20.2,20.2 z m 0,21.18 c 22.85,0 41.37,-18.53 41.37,-41.38 0,-22.84 -18.52,-41.37 -41.37,-41.37 -22.85,0 -41.37,18.53 -41.37,41.37 0,22.85 18.52,41.38 41.37,41.38 v 0" /><path
           inkscape:connector-curvature="0"
           id="path76"
           style="fill:#992c3d;fill-opacity:1;fill-rule:evenodd;stroke:none"
           d="m 3721.79,1321 181.42,-290.45 c 0,0 60.61,-19.14 82.94,17.14 22.32,36.28 17.45,61.24 17.45,61.24 L 3836.76,1385.01 3721.79,1321" /><path
           inkscape:connector-curvature="0"
           id="path78"
           style="fill:#eb3a58;fill-opacity:1;fill-rule:evenodd;stroke:none"
           d="m 3399.94,1077.93 c 3.53,12.33 126.8,368.07 376.88,487.83 209.37,100.26 577.85,37.16 656.88,-213.09 0,0 -42.26,-51.09 -125.03,-63.4 -82.77,-12.34 -239.51,75.73 -406.81,-77.49 -167.3,-153.22 -368.07,-244.8 -501.92,-133.85" /><path
           inkscape:connector-curvature="0"
           id="path80"
           style="fill:#eb3c61;fill-opacity:1;fill-rule:evenodd;stroke:none"
           d="m 4353.04,1334.78 c 16.12,6.79 31.66,15.63 44.11,26.16 -84.43,214.72 -418.33,266.38 -606.63,176.21 -16.73,-8.02 -32.87,-17.18 -48.42,-27.29 -14.92,-9.69 -29.27,-20.24 -43.08,-31.47 -22.16,-18.03 -43.14,-37.97 -62.93,-59.27 7.87,7.15 15.89,14.07 24.07,20.73 13.81,11.24 28.17,21.78 43.09,31.49 15.54,10.11 31.7,19.27 48.42,27.28 184.63,88.41 509.18,40.46 601.37,-163.84" /><path
           inkscape:connector-curvature="0"
           id="path82"
           style="fill:#fbbe15;fill-opacity:1;fill-rule:evenodd;stroke:none"
           d="m 3532.71,2229.14 c 0,0 -78.7,25.07 -73.26,3.33 5.43,-21.73 77.9,-155.8 88.78,-179.35 10.87,-23.56 93.19,-32.33 93.19,-32.33 0,0 -57.07,158.52 -108.71,208.35" /><path
           inkscape:connector-curvature="0"
           id="path84"
           style="fill:#eb3a58;fill-opacity:1;fill-rule:evenodd;stroke:none"
           d="m 3196.46,2556.73 c 0,0 71.33,120.13 217.74,159.55 146.41,39.42 185.83,20.65 185.83,20.65 l 24.4,-223.37 c 0,0 -234.63,-31.91 -300.32,-45.04 -65.7,-13.15 -127.65,88.21 -127.65,88.21" /><path
           inkscape:connector-curvature="0"
           id="path86"
           style="fill:#929395;fill-opacity:1;fill-rule:evenodd;stroke:none"
           d="m 3537.56,2740.16 c 47.12,4.07 62.47,-3.24 62.47,-3.24 l 24.39,-223.36 c 0,0 -26.98,-3.67 -65.21,-9.03 l -21.65,235.63" /><path
           inkscape:connector-curvature="0"
           id="path88"
           style="fill:#eb3a58;fill-opacity:1;fill-rule:evenodd;stroke:none"
           d="m 2326.42,3542.96 c 0,0 -197.07,27.66 -352.64,-484.01 -155.58,-511.67 -34.58,-795.16 -34.58,-795.16 0,0 65.68,1.72 304.23,101.98 238.56,100.26 254.1,134.82 254.1,134.82 0,0 -127.91,300.77 -88.16,539.32 39.76,238.54 81.25,375.1 81.25,375.1 0,0 -88.17,119.28 -164.2,127.95" /><path
           inkscape:connector-curvature="0"
           id="path90"
           style="fill:#f8a597;fill-opacity:1;fill-rule:evenodd;stroke:none"
           d="m 2302.95,2992.62 c 36.19,-126.79 70.12,-314.03 70.12,-314.03 195.63,-71.05 475.38,-106.16 689.72,-150.38 0,0 74.29,-74.35 126.16,-74.35 51.86,0 133.09,43.21 128.78,61.35 -4.32,18.16 -39.75,120.15 -57.9,140.02 -18.16,19.88 -53.61,10.38 -70.02,3.47 -16.42,-6.92 -85.57,-33.71 -85.57,-33.71 -188.75,51.95 -391.82,145.29 -583.41,203.97 0,0 -6.36,112.17 -29.61,207.61 -82.47,-31.97 -105.44,-11.65 -188.27,-43.95" /><path
           inkscape:connector-curvature="0"
           id="path92"
           style="fill:#eb3c61;fill-opacity:1;fill-rule:evenodd;stroke:none"
           d="m 2253.53,3001.84 c 4.7,-30.9 12.01,-62.33 20.73,-92.91 47.23,18.44 151.91,58.87 237.23,88.63 4.14,1.44 8.13,2.92 12.04,4.43 -10.81,44.39 -21.15,92.26 -28.28,137.26 -22.45,141.74 7.94,221.49 -76.84,254.1 -243.64,93.7 -178.52,-301.76 -164.88,-391.51" /><path
           inkscape:connector-curvature="0"
           id="path94"
           style="fill:#462119;fill-opacity:1;fill-rule:evenodd;stroke:none"
           d="m 2732.5,1360.49 c -19.51,-59.79 -56.17,-168.86 -56.17,-168.86 0,0 109.53,-7.82 292.14,-11.79 182.63,-3.98 240.21,19.14 240.21,19.14 0,0 -29.31,48.28 -44.87,58.65 -15.56,10.37 -129.65,32.83 -198.79,69.14 -11.92,6.26 -21.43,12.73 -29,19.15 -33.16,-14.35 -68.27,-26.63 -88.6,-25.12 -26.59,1.96 -76.68,22.42 -114.92,39.69" /><path
           inkscape:connector-curvature="0"
           id="path96"
           style="fill:#8c6d4f;fill-opacity:1;fill-rule:evenodd;stroke:none"
           d="m 2686.97,1223.33 -10.64,-31.7 c 0,0 109.53,-7.82 292.14,-11.79 182.63,-3.98 240.21,19.14 240.21,19.14 0,0 -6.77,11.17 -15.55,23.91 -38.4,-8.01 -102.69,-17.31 -195.46,-17.81 -164.22,-0.86 -310.7,18.25 -310.7,18.25" /><path
           inkscape:connector-curvature="0"
           id="path98"
           style="fill:#eb3c61;fill-opacity:1;fill-rule:evenodd;stroke:none"
           d="m 2336.67,3581.22 -34.26,-39.06 178.74,-163.12 35.5,75.94 -179.98,126.24" /><path
           inkscape:connector-curvature="0"
           id="path100"
           style="fill:#462119;fill-opacity:1;fill-rule:evenodd;stroke:none"
           d="m 2210.48,4069.12 -21.36,-94.04 c 0,0 13.34,-138.57 57.9,-233.04 44.57,-94.48 115.87,-137.26 115.87,-137.26 0,0 85.57,71.3 106.95,121.22 21.38,49.9 114.08,151.5 114.08,151.5 l 54.8,140.88 c 0,0 -357.82,110.45 -428.24,50.74" /><path
           inkscape:connector-curvature="0"
           id="path102"
           style="fill:#f8a597;fill-opacity:1;fill-rule:evenodd;stroke:none"
           d="m 2831.85,4041.93 c 0,0 0,-135.47 -8.9,-181.82 -8.91,-46.35 60.17,-103.83 65.06,-114.08 4.91,-10.25 -28.51,-19.62 -33.42,-30.31 -4.9,-10.7 -4.45,-41.44 -4.45,-41.44 0,0 -35.19,-8.03 -67.29,-5.36 -32.08,2.69 -37.88,6.26 -37.88,6.26 0,0 6.23,-31.88 31.42,-56.4 25.18,-24.5 49.03,-29.63 49.03,-29.63 0,0 -12.03,-54.35 -13.8,-69.06 -1.78,-14.7 -12.02,-33.86 -49.45,-40.09 -37.43,-6.24 -89.12,-1.8 -194.3,57.03 -105.17,58.83 -108.73,95.38 -125.66,127.46 -16.93,32.07 -17.84,60.6 -17.84,60.6 0,0 -39.21,4.45 -47.23,53.47 -8.02,49.02 15.15,106.95 43.68,125.67 28.51,18.71 50.8,5.35 58.82,-18.72 8.02,-24.06 5.35,-39.21 5.35,-39.21 l 32.97,0.89 c 0,0 10.7,36.54 35.66,69.52 24.95,32.98 42.63,129.68 40.1,134.57 -2.52,4.91 215.69,28.52 238.13,-9.35" /><path
           inkscape:connector-curvature="0"
           id="path104"
           style="fill:#221612;fill-opacity:1;fill-rule:evenodd;stroke:none"
           d="m 2777.76,3799.99 c 10.54,0 19.16,14.81 19.16,32.98 0,18.16 -8.62,32.97 -19.16,32.97 -10.55,0 -19.15,-14.81 -19.15,-32.97 0,-18.17 8.6,-32.98 19.15,-32.98" /><path
           inkscape:connector-curvature="0"
           id="path106"
           style="fill:#462119;fill-opacity:1;fill-rule:evenodd;stroke:none"
           d="m 2702.87,3888.22 c 2.69,2.68 31.66,20.94 65.97,21.84 34.32,0.88 48.13,-8.47 47.24,-5.8 -0.9,2.68 2.66,25.86 -10.26,28.97 -12.92,3.12 -85.1,0 -102.95,-45.01" /><path
           inkscape:connector-curvature="0"
           id="path108"
           style="fill:#992c3d;fill-opacity:1;fill-rule:evenodd;stroke:none"
           d="m 2519.02,4018.75 c 0,0 221.03,-51.7 365.42,-44.57 144.39,7.13 251.34,128.34 251.34,128.34 0,0 -349.38,44.56 -363.65,42.78 -14.25,-1.78 -253.11,-126.55 -253.11,-126.55" /><path
           inkscape:connector-curvature="0"
           id="path110"
           style="fill:#eb3a58;fill-opacity:1;fill-rule:evenodd;stroke:none"
           d="m 2178.55,3975.95 c 0,0 248.25,-23.48 416.07,27.18 0,0 158.53,104.14 238.82,136.42 -8.75,25.5 -68.9,198.47 -96.96,223.22 -30.3,26.73 -322.63,49.91 -322.63,49.91 0,0 -180.05,-103.39 -206.78,-151.52 -26.73,-48.12 -28.52,-285.21 -28.52,-285.21" /><path
           inkscape:connector-curvature="0"
           id="path112"
           style="fill:#992c3d;fill-opacity:1;fill-rule:evenodd;stroke:none"
           d="m 2413.21,4420.98 c 18.4,3.53 34.86,-1.58 36.75,-11.43 1.88,-9.84 -11.52,-20.69 -29.92,-24.21 -18.41,-3.54 -34.87,1.59 -36.76,11.43 -1.87,9.84 11.52,20.69 29.93,24.21" /><path
           inkscape:connector-curvature="0"
           id="path114"
           style="fill:#61656a;fill-opacity:1;fill-rule:evenodd;stroke:none"
           d="m 3132.2,2521.1 3.92,20.48 c 0,0 33.17,11.13 49.96,12.3 16.78,1.18 31.61,-33.17 25.37,-48.79 -6.25,-15.61 -41.27,-38.82 -41.27,-38.82 l -37.98,54.83" /><path
           inkscape:connector-curvature="0"
           id="path116"
           style="fill:#8c9295;fill-opacity:1;fill-rule:evenodd;stroke:none"
           d="m 3136.12,2541.58 c 14.93,4.97 32.99,-8.87 40.33,-30.91 7.33,-22.06 1.17,-43.95 -13.77,-48.92 -14.92,-4.97 -32.99,8.87 -40.33,30.91 -7.34,22.04 -1.17,43.95 13.77,48.92" /><path
           inkscape:connector-curvature="0"
           id="path118"
           style="fill:#992c3d;fill-opacity:1;fill-rule:evenodd;stroke:none"
           d="m 1158.78,2008.91 266.68,-153.98 c 31.79,-18.36 12.98,-67.52 -25.98,-45.02 l -266.7,153.97 c -52.77,30.46 -11.75,66.81 26,45.03" /><path
           inkscape:connector-curvature="0"
           id="path120"
           style="fill:#691f29;fill-opacity:1;fill-rule:evenodd;stroke:none"
           d="m 1158.78,2008.91 126.27,-72.91 -101.56,-1.4 -50.71,29.28 c -52.77,30.46 -11.75,66.81 26,45.03" /><path
           inkscape:connector-curvature="0"
           id="path122"
           style="fill:#992c3d;fill-opacity:1;fill-rule:evenodd;stroke:none"
           d="M 1042.04,2024.64 H 1871 c 14.3,0 25.99,-11.7 25.99,-26.01 v -0.02 c 0,-14.27 -11.69,-25.97 -25.99,-25.97 h -828.96 c -14.29,0 -25.98,11.7 -25.98,25.97 v 0.02 c 0,14.31 11.69,26.01 25.98,26.01" /><path
           inkscape:connector-curvature="0"
           id="path124"
           style="fill:#8c9295;fill-opacity:1;fill-rule:evenodd;stroke:none"
           d="m 1413.67,1818.85 c 6.61,0 11.99,5.39 11.99,11.99 0,6.6 -5.38,11.98 -11.99,11.98 -6.6,0 -12,-5.38 -12,-11.98 0,-6.6 5.4,-11.99 12,-11.99" /><path
           inkscape:connector-curvature="0"
           id="path126"
           style="fill:#8c9295;fill-opacity:1;fill-rule:evenodd;stroke:none"
           d="m 1864.52,1987.64 c 6.61,0 11.99,5.39 11.99,11.99 0,6.6 -5.38,12 -11.99,12 -6.6,0 -11.99,-5.4 -11.99,-12 0,-6.6 5.39,-11.99 11.99,-11.99" /><path
           inkscape:connector-curvature="0"
           id="path128"
           style="fill:#8c9295;fill-opacity:1;fill-rule:evenodd;stroke:none"
           d="m 3380.34,3136.43 71.73,-31.99 23.34,-497.42 c 0,0 0.22,-5.18 8.42,-5.18 8.22,0 10.37,4.74 10.37,4.74 l -27.43,510.37 -77.8,33.06 -8.63,-13.58" /><path
           inkscape:connector-curvature="0"
           id="path130"
           style="fill:#61656a;fill-opacity:1;fill-rule:evenodd;stroke:none"
           d="m 3312.49,3084.58 -19.88,-49.98 31.97,-6.21 c 0,0 42.8,33.26 69.59,105.86 26.79,72.61 15.12,129.23 15.12,129.23 l -22.75,18.74 -29.53,-83.14 -44.52,-114.5" /><path
           inkscape:connector-curvature="0"
           id="path132"
           style="fill:#c5c7c6;fill-opacity:1;fill-rule:evenodd;stroke:none"
           d="m 3381.16,3285.97 c 20.95,-7.81 17.04,-70.23 -8.74,-139.42 -25.81,-69.19 -63.7,-118.96 -84.64,-111.14 -20.96,7.8 -17.04,70.22 8.76,139.41 25.79,69.19 63.68,118.95 84.62,111.15" /><path
           inkscape:connector-curvature="0"
           id="path134"
           style="fill:#fbbe15;fill-opacity:1;fill-rule:evenodd;stroke:none"
           d="m 1220.46,1659.94 c 0,0 -92.56,-145.21 -109.21,-154.3 -16.65,-9.1 -57.52,-18.47 -57.52,-18.47 0,0 24.79,58.18 63.21,108.24 38.42,50.06 50.73,58.39 66.42,63.18 15.68,4.8 37.1,1.35 37.1,1.35" /><path
           inkscape:connector-curvature="0"
           id="path140"
           style="fill:#1b1918;fill-opacity:1;fill-rule:evenodd;stroke:none"
           d="m 2415.06,3848.84 c -11.57,-7.07 -33.09,-48.32 -9.56,-52.29 2.29,-0.39 5.27,1.37 5.91,3.66 1.01,3.59 -1.64,6.26 -1.97,9.79 -0.65,6.95 3.15,16.58 6.73,22.36 5.3,8.53 14.07,10.93 22.19,4.13 7.97,-6.67 9.47,-18.16 11,-27.83 0.39,-2.43 4.49,-2.49 4.46,0.12 -0.11,12.9 -0.71,26.7 -10.45,36.35 -7.74,7.66 -18.88,9.46 -28.31,3.71" /><path
           inkscape:connector-curvature="0"
           id="path142"
           style="fill:#1b1918;fill-opacity:1;fill-rule:evenodd;stroke:none"
           d="m 2606.71,4249.72 c 14.99,15.83 28.39,32.89 39.61,51.61 4.77,7.94 9.13,16.1 13.11,24.47 2.38,5.02 5.38,10.31 6.89,15.69 1.34,4.74 0.74,12.3 2.75,4.53 0.49,-1.89 3.04,-1.45 2.96,0.47 0.02,2.98 -0.24,5.93 -0.8,8.86 -0.27,1.95 -3.23,2.31 -3.86,0.39 -12.89,-39.39 -33.34,-74.86 -60.93,-105.76 -0.14,-0.16 0.13,-0.41 0.27,-0.26" /><path
           inkscape:connector-curvature="0"
           id="path144"
           style="fill:#1b1918;fill-opacity:1;fill-rule:evenodd;stroke:none"
           d="m 1402.52,1008.99 c 0.49,-16.92 5.55,-34.529 14.42,-49.49 -13.08,13.109 -20.31,30.781 -14.42,49.49 z m 78.99,9.85 c 7.69,-3.48 13.93,-8.31 14.04,-14.83 -4.19,-4.619 -8.38,-9.24 -12.58,-13.862 -3.67,4.801 -7.35,9.622 -11.03,14.422 3.2,4.76 6.38,9.51 9.57,14.27 z m -54.43,20.07 c 11.76,7.54 25.69,12.63 38.46,17.16 1.38,0.5 1.59,1.72 1.12,2.72 3.45,-0.46 7.04,-1.17 10.87,-2.42 5.85,-1.89 11.29,-5.01 16.38,-8.79 -13.76,5.59 -27.63,4.08 -36.87,-12.43 -0.55,-0.99 -0.89,-2.1 -1.29,-3.18 -0.28,-0.12 -0.58,-0.19 -0.85,-0.33 -2.07,-1.1 -2.11,-3.71 -0.56,-4.99 -4.55,-28.33 27.9,-74.58 51.98,-47.591 16.57,18.601 2.53,41.201 -17.26,51.021 0.58,0.89 1.17,1.77 1.77,2.64 3.87,-2.26 7.74,-4.54 11.62,-6.8 22.23,-17.09 27.96,-46.182 16.04,-66.248 -9.18,-12.813 -25.17,-20.133 -42.16,-21.774 -50.47,-0.75 -68,66.182 -49.25,101.012 z m 33.69,20.34 c -8.3,-2.62 -17.16,-5.81 -25.77,-9.78 6.49,6.23 15.06,9.92 25.77,9.78 z m -14.86,-129.141 c 11.13,-6.308 24.04,-9.468 38.47,-7.777 37.62,4.418 67.68,42.348 54.07,79.518 -0.29,0.78 -0.72,1.63 -1.07,2.45 -8.68,36.88 -40.74,72.58 -80.99,69.76 -30.77,-2.16 -47.19,-21.36 -52.23,-45.43 -10.27,-10.88 -16.16,-24.71 -13,-42.579 4.9,-27.742 28.36,-47.742 54.75,-55.942" /><g
           transform="translate(39.471819)"
           id="g756"><flowRoot
             xml:space="preserve"
             id="flowRoot291"
             style="font-style:normal;font-variant:normal;font-weight:normal;font-stretch:normal;font-size:40px;line-height:0;font-family:Xilosa;-inkscape-font-specification:Xilosa;letter-spacing:0px;word-spacing:8.25px;fill:#dcdde1;fill-opacity:1;stroke:none"
             transform="matrix(4.0947895,0,0,-4.0947895,1681.7447,3354.1551)"><flowRegion
               id="flowRegion293"
               style="fill:#dcdde1;fill-opacity:1"><rect
                 id="rect295"
                 width="248.11125"
                 height="134.64058"
                 x="-187.14194"
                 y="258.51096"
                 style="fill:#dcdde1;fill-opacity:1" /></flowRegion><flowPara
               id="flowPara297">4002-8922</flowPara></flowRoot><path
             id="path387"
             d="m 824.0141,2393.9335 -36.57482,8.4403 c -3.97404,0.9144 -8.05354,-1.1605 -9.67125,-4.8883 l -16.88067,-39.3883 c -1.47704,-3.4465 -0.49236,-7.4908 2.42658,-9.8471 l 21.31186,-17.4433 c -12.6605,-26.974 -34.78122,-49.4112 -62.31787,-62.3179 l -17.44334,21.3118 c -2.39142,2.919 -6.40061,3.9037 -9.84707,2.4267 l -39.38824,-16.8807 c -3.763,-1.6529 -5.83794,-5.7324 -4.92356,-9.7064 l 8.44033,-36.5748 c 0.87922,-3.7982 4.25532,-6.5413 8.22936,-6.5413 90.06549,0 163.17989,72.9738 163.17989,163.1799 0,3.9388 -2.70788,7.3502 -6.5412,8.2294 z"
             inkscape:connector-curvature="0"
             style="fill:#dcdde1;fill-opacity:1;stroke-width:0.35168087" /></g><g
           transform="matrix(8.2721965,0,0,-8.2721965,578.67571,3636.2367)"
           inkscape:label="Camada 1"
           id="layer1"><flowRoot
             xml:space="preserve"
             id="flowRoot823"
             style="font-style:normal;font-variant:normal;font-weight:normal;font-stretch:normal;font-size:40px;line-height:0;font-family:'Press Start 2P';-inkscape-font-specification:'Press Start 2P';letter-spacing:0px;word-spacing:8.25px;fill:#000000;fill-opacity:1;stroke:none"><flowRegion
               id="flowRegion825"><rect
                 id="rect827"
                 width="237.59117"
                 height="257.90564"
                 x="305.60052"
                 y="461.85727" /></flowRegion><flowPara
               id="flowPara829" /></flowRoot><flowRoot
             xml:space="preserve"
             id="flowRoot835"
             style="font-style:normal;font-variant:normal;font-weight:normal;font-stretch:normal;font-size:40px;line-height:0;font-family:Xilosa;-inkscape-font-specification:Xilosa;letter-spacing:0px;word-spacing:8.25px;fill:#000000;fill-opacity:1;stroke:none"
             transform="scale(0.26458333)"><flowRegion
               id="flowRegion837"
               style="font-style:normal;font-variant:normal;font-weight:normal;font-stretch:normal;font-family:Xilosa;-inkscape-font-specification:Xilosa"><rect
                 id="rect839"
                 width="287.05252"
                 height="73.3088"
                 x="228.75879"
                 y="620.84021"
                 style="font-style:normal;font-variant:normal;font-weight:normal;font-stretch:normal;font-family:Xilosa;-inkscape-font-specification:Xilosa" /></flowRegion><flowPara
               id="flowPara841" /></flowRoot><flowRoot
             xml:space="preserve"
             id="flowRoot843"
             style="font-style:normal;font-variant:normal;font-weight:normal;font-stretch:normal;font-size:40px;line-height:0;font-family:'Press Start 2P';-inkscape-font-specification:'Press Start 2P';letter-spacing:0px;word-spacing:8.25px;fill:#000000;fill-opacity:1;stroke:none"><flowRegion
               id="flowRegion845"><rect
                 id="rect847"
                 width="172.23152"
                 height="122.77016"
                 x="277.33691"
                 y="602.29218" /></flowRegion><flowPara
               id="flowPara849" /></flowRoot><flowRoot
             xml:space="preserve"
             id="flowRoot851"
             style="font-style:normal;font-variant:normal;font-weight:normal;font-stretch:normal;font-size:40px;line-height:0;font-family:Xilosa;-inkscape-font-specification:Xilosa;letter-spacing:0px;word-spacing:8.25px;fill:#000000;fill-opacity:1;stroke:none"
             transform="scale(0.26458333)"><flowRegion
               id="flowRegion853"><rect
                 id="rect855"
                 width="195.19572"
                 height="84.790901"
                 x="332.98093"
                 y="606.70837" /></flowRegion><flowPara
               id="flowPara857" /></flowRoot><g
             id="g975"><g
               id="g992"
               inkscape:export-filename="/home/ronier/Cloud/Dropbox/2019.1/WEB/Trabalhos/Front/Beer Pub/img/logo.png"
               inkscape:export-xdpi="364"
               inkscape:export-ydpi="364"><g
                 id="g1008"><g
                   id="g882"><g
                     transform="translate(0,0.35048123)"
                     id="g1060"><g
                       id="g749"><path
                         style="opacity:1;fill:#dcdde1;fill-opacity:1;stroke:none;stroke-width:7.17969275;stroke-miterlimit:10;stroke-dasharray:none;stroke-opacity:1"
                         d="m -50.981141,104.78957 50.7940568,0.002 v 33.55699 l -54.1976568,-0.082 z"
                         id="rect1062"
                         inkscape:connector-curvature="0"
                         sodipodi:nodetypes="ccccc"
                         transform="matrix(-0.99999999,0,0,0.99999999,-4.0755985e-7,-0.35048315)" /><g
                         aria-label="GULA"
                         transform="matrix(0.26458333,0,0,0.26458333,30.162513,0)"
                         style="font-style:normal;font-variant:normal;font-weight:normal;font-stretch:normal;font-size:40px;line-height:1;font-family:'Press Start 2P';-inkscape-font-specification:'Press Start 2P';letter-spacing:0px;word-spacing:8.25px;fill:#dcdde1;fill-opacity:1;stroke:none"
                         id="flowRoot815"><path
                           d="m 166.62058,396.65042 v 15.552 l -57.024,8.256 5.184,78.912 28.608,-2.688 9.6,-27.84 -24.576,-4.032 -2.112,-13.44 h 48 l -10.368,67.2 -72.384002,2.688 -32.928307,-46.47395 20.064307,-80.05405 z"
                           style="fill:#dcdde1;fill-opacity:1"
                           id="path1084"
                           inkscape:connector-curvature="0"
                           sodipodi:nodetypes="cccccccccccccc" /><path
                           d="m 267.35458,395.69042 6.912,125.184 -74.496,-3.456 -4.8,-122.304 14.976,-0.192 13.248,95.808 22.848,4.032 3.456,-99.072 z"
                           style="fill:#dcdde1;fill-opacity:1"
                           id="path1086"
                           inkscape:connector-curvature="0" /><path
                           d="m 299.10058,395.11442 v 0 h 23.232 l -7.68,102.528 38.4,4.224 0.192,15.36 -56.448,4.608 z"
                           style="fill:#dcdde1;fill-opacity:1"
                           id="path1088"
                           inkscape:connector-curvature="0" /><path
                           d="m 446.86858,398.37842 5.952,120.192 -10.56,2.496 -12.864,-38.4 -34.944,3.456 -8.064,32.448 -8.064,-0.96 -8.064,-122.688 z m -52.416,64.32 31.488,1.344 -10.56,-43.776 -11.904,1.152 z"
                           style="fill:#dcdde1;fill-opacity:1"
                           id="path1090"
                           inkscape:connector-curvature="0" /></g></g><g
                       style="fill:#dcdde1;fill-opacity:1"
                       transform="matrix(0.64719186,0,0,0.63304093,-7.7111287,33.546493)"
                       id="g875"><g
                         style="fill:#eb3a58;fill-opacity:1"
                         transform="translate(1.3008492,0.4336164)"
                         id="g959"><g
                           style="fill:#eb3a58;fill-opacity:1"
                           id="g1036"><g
                             style="fill:#eb3a58;fill-opacity:1;stroke:none"
                             id="g951"
                             transform="translate(29.843675,11.038071)"><path
                               style="fill:#eb3a58;fill-opacity:1;stroke:none;stroke-width:0.35173365px;stroke-linecap:butt;stroke-linejoin:miter;stroke-opacity:1"
                               d="m -14.838411,102.56714 c -2.391987,5.30888 -1.447702,11.5804 2.499875,15.95842 l 7.5332907,8.35308 c 0.7431916,0.82516 1.7802094,1.31424 2.8792391,1.37103 0.1175394,0.006 0.2359947,0.007 0.3539893,0.003 l 4.6321897,-0.15519 2.5890357,2.944 4.9700995,-4.12745 -22.188774,-25.71556 c -0.303446,-0.33663 -0.726801,-0.53446 -1.171148,-0.55743 -0.09456,-0.005 -0.190161,-0.002 -0.283783,0.009 -0.545363,0.0636 -1.027028,0.38685 -1.290862,0.86851 -0.189224,0.34451 -0.363678,0.69412 -0.523146,1.04803 z"
                               id="path861"
                               inkscape:connector-curvature="0"
                               sodipodi:nodetypes="cccccccccccccc" /><g
                               style="fill:#eb3a58;fill-opacity:1"
                               id="g960"
                               transform="rotate(-34.081059,41.992189,119.36666)"><g
                                 transform="rotate(-5.3224893,-120.09408,53.932785)"
                                 id="g937"
                                 style="fill:#eb3a58;fill-opacity:1;stroke:none"><path
                                   style="fill:#eb3a58;fill-opacity:1;stroke:none;stroke-width:0.33069327px;stroke-linecap:butt;stroke-linejoin:miter;stroke-opacity:1"
                                   d="m 21.306567,127.46331 0.266259,-6.57114 -46.179339,0.27599 c -0.216347,0.001 -0.426385,0.0593 -0.61872,0.14945 -0.192346,0.0901 -0.366843,0.21865 -0.511666,0.38017 -0.0036,0.004 -0.0063,0.007 -0.0092,0.0109 -0.0027,0.003 -0.0062,0.007 -0.0091,0.0108 -0.13841,0.16064 -0.24215,0.34517 -0.307546,0.5425 -0.06538,0.19731 -0.09245,0.40742 -0.07749,0.61919 l 0.170193,2.28683 0.170202,2.28683 c 0.01571,0.21106 0.07268,0.41439 0.166075,0.59946 0.09364,0.18494 0.223011,0.35187 0.383148,0.48989 0.160133,0.13797 0.344421,0.24152 0.541336,0.30671 0.196914,0.0652 0.406453,0.092 0.61707,0.0766 l 9.4989,-0.26713 z"
                                   id="path861-5"
                                   inkscape:connector-curvature="0"
                                   sodipodi:nodetypes="ccscscscccscscccc" /></g><g
                                 style="fill:#eb3a58;fill-opacity:1;stroke:none"
                                 id="g979"
                                 transform="rotate(-95.32249,5.874016,120.45358)"><path
                                   sodipodi:nodetypes="ccscscscccscscccc"
                                   inkscape:connector-curvature="0"
                                   id="path977"
                                   d="M 9.0479872,127.12939 8.7814001,120.8591 -10.570721,120.7773 c -0.204734,-8.7e-4 -0.403496,0.0561 -0.585507,0.14143 -0.182021,0.0853 -0.347151,0.20691 -0.484199,0.35976 -0.0034,0.004 -0.006,0.007 -0.0087,0.0103 -0.0026,0.003 -0.0059,0.007 -0.0086,0.0102 -0.13098,0.15202 -0.229151,0.32665 -0.291037,0.51338 -0.06187,0.18672 -0.08749,0.38555 -0.07333,0.58596 l 0.161057,2.16407 0.161065,2.16407 c 0.01487,0.19973 0.06878,0.39215 0.15716,0.56728 0.08861,0.17501 0.21104,0.33298 0.362581,0.4636 0.151537,0.13056 0.325932,0.22855 0.512277,0.29024 0.186344,0.0617 0.384635,0.0871 0.583946,0.0725 l 2.2357953,-0.002 z"
                                   style="fill:#eb3a58;fill-opacity:1;stroke:none;stroke-width:0.31294167px;stroke-linecap:butt;stroke-linejoin:miter;stroke-opacity:1" /></g></g></g><g
                             style="fill:#eb3a58;fill-opacity:1"
                             id="g987"><text
                               xml:space="preserve"
                               style="font-style:normal;font-variant:normal;font-weight:normal;font-stretch:normal;font-size:7.8613615px;line-height:0;font-family:Xilosa;-inkscape-font-specification:Xilosa;letter-spacing:0px;word-spacing:1.62140596px;fill:#eb3a58;fill-opacity:1;stroke:none;stroke-width:0.19653404"
                               x="17.163277"
                               y="166.87886"
                               id="text865"
                               transform="matrix(1.1656132,-0.78067697,0.40222678,0.58852352,-29.832908,55.07078)"><tspan
                                 sodipodi:role="line"
                                 id="tspan863"
                                 x="17.163277"
                                 y="166.87886"
                                 style="font-size:37.73453903px;fill:#eb3a58;fill-opacity:1;stroke-width:0.19653404">E</tspan></text>
<text
                               transform="matrix(-0.55702148,1.2846621,-0.65522936,-0.28410337,0,0)"
                               id="text887"
                               y="-154.90775"
                               x="69.336685"
                               style="font-style:normal;font-variant:normal;font-weight:normal;font-stretch:normal;font-size:7.55831003px;line-height:0;font-family:Xilosa;-inkscape-font-specification:Xilosa;letter-spacing:0px;word-spacing:1.55890155px;fill:#eb3a58;fill-opacity:1;stroke:none;stroke-width:0.18895775"
                               xml:space="preserve"><tspan
                                 style="font-size:36.27989197px;fill:#eb3a58;fill-opacity:1;stroke-width:0.18895775"
                                 y="-153.01817"
                                 x="69.336685"
                                 id="tspan885"
                                 sodipodi:role="line" /></text>
<text
                               transform="rotate(-34.981699)"
                               id="text1020"
                               y="168.7113"
                               x="-29.158682"
                               style="font-style:normal;font-variant:normal;font-weight:normal;font-stretch:normal;font-size:28.75990677px;line-height:0;font-family:Xilosa;-inkscape-font-specification:Xilosa;letter-spacing:0px;word-spacing:5.93173027px;fill:#eb3a58;fill-opacity:1;stroke:none;stroke-width:0.71899766"
                               xml:space="preserve"><tspan
                                 style="fill:#eb3a58;fill-opacity:1;stroke-width:0.71899766"
                                 y="168.7113"
                                 x="-29.158682"
                                 id="tspan1018"
                                 sodipodi:role="line">M</tspan></text>
</g></g></g></g></g></g></g></g></g></g><path
           inkscape:connector-curvature="0"
           id="path146"
           style="fill:#1b1918;fill-opacity:1;fill-rule:evenodd;stroke:none"
           d="m 4375.85,1328.51 c -16.02,-7.89 -31.67,-13.21 -47.11,-16.66 -8.55,5.1 -17.56,2.39 -23.7,-3.8 -60.18,-6.5 -118.08,11.66 -182.76,16.43 -63.9,4.72 -119.77,-19.77 -170.36,-57.15 -60.63,-44.77 -112.37,-99.92 -175.73,-141.28 -67.71,-44.17 -145.91,-78.3 -227.29,-84.38 -22.57,-1.69 -55.13,-2.75 -77.78,3.96 -30.82,9.13 -34.73,28.94 -26.43,57.32 10.38,35.51 21.03,71.02 32.92,106.06 18.51,54.54 42.47,105.08 78.28,147.37 4.67,4.95 9.38,9.87 14.04,14.83 90.15,69.77 200.01,112.82 314.12,123.2 135.56,12.35 368.51,-20.43 406.36,-179.49 0.88,-3.71 6.62,-2.9 5.92,0.95 -27.22,150.3 -246.46,189.96 -371.33,187.12 -120.88,-2.76 -237.71,-41.58 -334.15,-111.52 7.08,6.06 14.47,11.89 22.31,17.42 3.04,2.14 2.19,6 -0.17,8 22.36,15.53 45.18,30.35 68.72,44.17 26.86,15.78 58.14,27.6 83.55,45.62 15.81,11.21 24.11,24.65 27.66,39.34 1.36,0.53 2.72,1.08 4.09,1.62 0.45,-1.31 0.89,-2.61 1.37,-3.91 2.63,-7.1 12.85,-2.16 10.58,4.81 -0.36,1.14 -0.78,2.25 -1.15,3.38 74.92,27.8 154.78,40.86 237.35,33.67 80.31,-7.01 159.46,-31.82 229.32,-72.16 30.69,-17.74 59.69,-38.53 86.42,-61.82 14.58,-12.71 37.64,-31.13 48.19,-48.37 21.87,-35.74 -1.93,-59.31 -33.24,-74.73 z m -3.13,-223.95 c 12.81,-64.96 14.21,-131.9 -4.69,-195.759 -35.63,-120.422 -129.18,-218.379 -244.84,-265.66 -119.64,-48.911 -256.11,-35.95 -366.99,29.57 -52.52,31.027 -98.9,73.238 -133.29,123.75 -16.4,24.09 -29.96,50.629 -38.88,78.527 38.56,7.731 74.05,30.352 110.12,45.102 0.15,-0.25 0.28,-0.5 0.41,-0.75 -4.64,-2.129 -9.43,-4.379 -11.45,-5.59 -8.96,-5.398 -17.73,-11.07 -26.24,-17.148 -20.79,-14.813 -40.74,-31.473 -57.62,-50.672 -2.95,-3.348 2.46,-8.278 5.73,-5.289 29.73,27.129 58.97,52.179 92.63,73.328 34.09,-59.199 86.48,-111.039 137.24,-142.93 109.91,-69.047 231.08,-66.918 335.52,10.891 91.74,68.351 154.49,184.879 134.48,301.01 -2.22,12.85 -5.53,25.77 -9.75,38.55 0.8,-0.49 1.77,-0.73 2.73,-0.41 19.84,6.64 34.67,19.92 48.03,35.71 1.96,2.31 0.59,6.6 -2.28,7.44 -15.05,4.37 -29.74,7.63 -44.95,9.68 14.68,8.81 29.39,17.57 44.39,25.83 13.61,-30.55 23.21,-62.34 29.7,-95.18 z m -155.6,149.02 c 5.96,2.38 11.97,4.64 18.06,6.73 1.64,0.57 3.37,1.2 5.11,1.85 2.81,-0.23 5.62,-0.38 8.43,-0.55 -0.1,-0.53 0.46,-1.17 1.04,-0.87 0.46,0.25 0.93,0.47 1.39,0.72 1.57,-0.09 3.14,-0.22 4.71,-0.29 -12.9,-2.59 -25.81,-5.12 -38.74,-7.59 z m 12.52,-23.17 c -3.18,3.29 -6.43,6.48 -9.77,9.59 12.81,2.22 25.61,4.5 38.39,6.96 -9.55,-5.51 -19.08,-11.03 -28.62,-16.55 z m 18.49,-6.11 c 18.45,10.67 36.89,21.34 55.34,32.02 2.3,1.33 3.47,3.63 3.76,5.98 0.43,0.05 0.86,0.1 1.29,0.15 2.68,-5.03 5.54,-9.99 8.45,-14.92 -22.48,-9.35 -45.39,-17.08 -68.84,-23.23 z m 38.6,-18.65 c 13.27,8.57 26.5,17.21 39.73,25.84 4.02,-6.82 7.91,-13.72 11.46,-20.78 -17.07,-1.6 -34.13,-3.31 -51.19,-5.06 z m -32.73,-4.21 c -1.91,2.61 -3.82,5.23 -5.81,7.79 10.48,2.67 20.87,5.59 31.14,8.88 -8.46,-5.54 -16.93,-11.05 -25.33,-16.67 z m 27.76,-36.42 c 11.01,-1.01 43.66,1.45 44.1,-16.25 0.17,-6.77 -24.25,-17.97 -31.2,-22.66 -0.42,-0.28 -0.69,-0.6 -0.89,-0.94 -7.64,22.13 -18.08,43.79 -31.1,63.83 18.42,2.63 36.86,5.24 55.27,7.91 -12.58,-7.31 -25.23,-14.52 -37.84,-21.76 -4.31,-2.48 -3.98,-9.61 1.66,-10.13 z m -101.74,104.7 c 11.06,-1.81 22.23,-3.45 33.48,-4.84 -5.43,-2.04 -10.79,-4.2 -16.1,-6.46 -5.64,4.04 -11.42,7.83 -17.38,11.3 z M 3853.26,845.68 c 89.49,-77.52 212.55,-60.91 296.9,17.8 77.97,72.739 102.75,199.43 39.16,289.7 -52.23,74.14 -155.11,106.73 -234.41,62.97 49.91,37.94 102.63,66.04 169.62,61.82 18.28,-8.24 35.52,-18 51.51,-29.17 -3.45,-1.63 -6.89,-3.27 -10.26,-4.91 -6.4,-3.12 -3.57,-13.11 3.62,-12.04 8.03,1.18 16.01,2.53 24.02,3.8 6.2,-5.04 12.2,-10.31 17.9,-15.85 -3.43,-1.98 -6.84,-3.95 -10.26,-5.93 -6.76,-3.91 -4.49,-15.36 4.17,-13.88 7.1,1.22 14.13,2.61 21.13,4.09 32.48,-37.16 54.21,-83.31 60.32,-137.35 12.15,-107.421 -49,-212.679 -135.21,-273.261 -104.66,-73.571 -225.52,-65.059 -327.36,9.781 -42.62,31.332 -78.49,72.34 -104.21,118.531 -0.85,1.52 -1.54,3.059 -2.35,4.598 1.22,1.902 0.3,4.672 -2.31,4.543 -16.45,32.898 -24.33,67.25 -34.71,101.968 38.88,14.95 76.05,33.97 111.25,56.25 -39.58,-84.01 -9.71,-181.8 61.48,-243.46 z m -4.15,233.36 c -1.49,-78.96 -21.43,-154.751 62.84,-199.528 64.25,-34.153 154.61,-27.153 198.51,34.937 76.93,108.801 -13.67,240.761 -129.54,236.241 -10.8,20.02 -23.53,39.03 -33.74,54.93 87.01,51.32 203.48,6.23 246.8,-82.9 43.37,-89.2 12.88,-197.63 -61.76,-259.72 -76.07,-63.258 -180.7,-80.07 -261.54,-17 -77.9,60.762 -112.63,166.24 -62.52,254 6.86,4.61 13.69,9.28 20.4,14.1 2.7,-5.26 5.58,-10.43 8.58,-15.54 0.06,-1.75 1.14,-3.53 2.67,-4.44 3.04,-5.05 6.13,-10.08 9.3,-15.08 z m 70.84,58 c -19.3,-11.57 -39.66,-21.05 -61.14,-28.34 19.93,19.37 42.51,37.33 58.95,58.78 1.46,1.91 -0.85,4.7 -3,3.62 -23.34,-11.68 -44.13,-33.58 -62.65,-54.2 -2.36,3.12 -4.76,6.21 -7.25,9.22 10.86,8.25 21.58,16.66 32.01,25.4 15.04,12.6 29.78,25.37 44.55,37.73 0.93,-0.78 1.91,-1.56 3.02,-2.37 6.48,-9.45 14,-20.25 21.19,-31.66 -8.81,-5.7 -17.61,-11.54 -25.68,-18.18 z m 45.26,-82.13 c -2.1,-0.57 -4.17,-1.19 -6.17,-1.9 -2.01,-0.71 -2.85,-2.3 -2.9,-3.98 -4.12,-1.28 -8.13,-3.05 -11.85,-5.44 -3.63,-2.32 -6.69,-5.04 -9.47,-7.95 -24.99,-6.08 -38.05,15.7 -51.96,36.62 -6.24,9.38 -12.42,18.82 -18.79,28.12 13.09,4.58 25.84,9.85 38.16,15.96 0.63,-0.92 1.8,-1.5 2.95,-0.93 10.23,5.02 19.69,11.51 28.94,18.35 6.95,2.52 13.87,4.49 20.76,5.95 16.92,-30.19 27.79,-62.39 10.33,-84.8 z m 22.45,-74.828 c 19.93,-2.344 39.81,13.859 40.7,35.288 0.37,8.89 -1.97,16.66 -6.04,23.06 6.45,-2.31 12.62,-5.94 18.36,-11.68 35.04,-35.051 -17.08,-69.141 -50.41,-68.531 -23.53,0.429 -57.39,25.41 -50.23,49.971 1.99,0.6 3.98,1.27 5.94,2.01 1.14,-12.18 7.48,-23.501 20.32,-29.118 7.35,-3.211 14.72,-3.191 21.36,-1 z m 73.77,40.628 c -10.71,23.4 -35.68,35.04 -61.33,37.18 8.82,25.75 -0.52,56.08 -15.08,84.93 108.06,0.01 191.76,-121.6 119.37,-224.07 -44.05,-62.34 -140.57,-66.648 -201.32,-25.949 -67.3,45.109 -51.48,113.269 -51,181.529 0.12,-0.19 0.24,-0.37 0.37,-0.56 11.85,-18.68 22.96,-43.25 39.81,-58.02 8.75,-7.66 18.84,-10.6 29.25,-10.53 -0.75,-10.849 1.75,-22.15 7.9,-32.458 17.21,-28.793 51.93,-36.364 82.47,-26.762 31.45,9.898 65.99,38.84 49.56,74.71 z M 3580.34,887.77 c 28.61,27.339 61.91,48.41 99.06,62.8 3.68,-8.789 7.81,-17.468 12.35,-26.031 -37.01,-13.25 -71.46,-38.039 -109.86,-42.488 -0.55,1.91 -1.06,3.808 -1.55,5.719 z m 16.08,72.902 c -7.52,-3.641 -14.99,-7.352 -22.43,-11.16 0.16,2.277 0.4,4.527 0.62,6.797 7.29,1.402 14.58,2.742 21.81,4.363 z m 59.24,63.358 c 1.56,0.52 3.12,1 4.68,1.54 0.22,-2.85 0.47,-5.7 0.82,-8.54 -0.45,-0.03 -0.87,0.07 -1.36,-0.07 -9.01,-2.68 -18.03,-4.81 -27.08,-6.46 7.18,2.28 14.32,4.86 21.55,8.05 2.45,1.07 2.58,3.67 1.39,5.48 z m -64.93,-17.45 c 3.03,0.8 6.09,1.42 9.14,2.11 3.14,0.66 6.27,1.41 9.4,2.13 5.64,1.12 11.31,2.14 17.05,3.1 -6.72,-2.64 -13.61,-4.87 -20.69,-6.79 -4.95,-0.34 -9.92,-0.51 -14.9,-0.55 z m 71.58,-5.44 c 0,0.02 0,0.03 0,0.05 0.45,0.14 0.9,0.26 1.35,0.38 0.63,-3.261 1.33,-6.519 2.12,-9.769 -28.75,-8.77 -57.96,-15.571 -87.53,-20.66 27.23,11.929 55.14,22.078 84.06,29.999 z m -86.47,-93.351 c -0.93,5.371 -1.5,10.582 -1.87,15.691 12.93,-0.421 25.18,3.93 36.62,12.93 0.98,0.77 -0.06,2.5 -1.18,1.879 -12.39,-6.648 -24.05,-8.16 -35.83,-5.48 -0.02,1.082 -0.09,2.171 -0.09,3.242 30.99,16.461 62.78,31.031 95.48,43.719 2.44,-8.321 5.3,-16.61 8.58,-24.801 -37.83,-11.828 -70.86,-30.789 -99.68,-56.957 -0.71,3.25 -1.45,6.5 -2.03,9.777 z m -30.12,80.711 c -1.3,4 -2.73,7.93 -4.17,11.84 1.79,0.14 3.59,0.26 5.39,0.42 0.26,-1.518 0.96,-2.998 2.05,-4.19 -1.2,-2.648 -2.28,-5.351 -3.27,-8.07 z m -13.57,-13.609 c -0.55,1.828 -3.33,14.328 -7.09,24.441 1.21,0.047 2.42,0.098 3.64,0.156 0.89,-8.308 2.07,-16.636 3.59,-25.019 -0.05,0.152 -0.1,0.293 -0.14,0.422 z m 242.43,563.499 c -5.78,-12.26 -15.46,-23.16 -30.48,-31.81 -21.96,-12.63 -44.61,-23.77 -66.24,-37.05 -14.54,-8.93 -28.72,-18.39 -42.73,-28.06 2.53,2.75 5.09,5.48 7.61,8.24 10.87,11.85 22.56,24 34.51,36.42 31.18,20.01 63.71,37.57 97.33,52.26 z m -35.58,14.98 c 13.73,16.35 26.56,33.27 37.77,50.83 2.74,-10.36 4.42,-20.69 4.64,-30.71 -14.42,-6.1 -28.58,-12.8 -42.41,-20.12 z m -342.65,-313.72 c -32.6,-31.55 -65.96,-62.85 -106.83,-83.48 -45.85,-23.14 -96.97,-25.08 -147.32,-27.27 -109.5,-4.77 -219.26,-4.9 -328.85,-4.36 -162.13,0.78 -324.24,2.79 -486.34,5.15 42.08,69.02 61.41,149.19 61.24,230.25 62.84,-108.51 179.49,-186.26 306.5,-195.83 34.51,-4.14 70.6,-2.47 104.11,-3.13 64.71,-1.29 129.44,-1.26 194.16,0.07 54.8,1.12 110.1,1.58 164.72,6.39 16.74,1.49 33.81,3.6 49.56,8.25 4.83,-0.18 9.85,1.33 13.47,4.83 12.18,5.21 23.13,12.55 31.91,23.13 79.47,17.44 142.46,91.35 178.56,160.07 59.97,114.15 98.23,248.59 113.08,376.46 13.53,116.42 2.96,237.07 -43.9,345.38 -26.58,61.44 -84.57,117.42 -95.79,183.7 -12,70.83 37.54,131.59 82.29,182.06 22.7,-53.45 53.6,-104.86 78.6,-156.44 32.41,-66.87 63.34,-134.45 92.73,-202.71 28.2,-65.52 55.22,-131.56 80.81,-198.16 12.77,-33.26 25.76,-66.58 37.29,-100.29 12.26,-35.83 12.92,-66.97 17.39,-101.79 -48.61,-88.92 -116.75,-161.23 -185.62,-235.4 -68.74,-74.03 -139.17,-146.62 -211.77,-216.88 z M 2246.08,1131.37 c -0.09,-0.16 -0.12,-0.32 -0.2,-0.47 -22.39,0.34 -44.78,0.67 -67.17,1.01 74.55,118.71 99.03,265.28 58.28,400.75 -21.43,71.24 -59.59,137.89 -110.57,192.13 -14.79,15.73 -31.47,32.66 -49.79,47.4 95.84,-50.35 175.32,-131.96 215.4,-233.22 54.72,-138.27 21.44,-281.91 -45.95,-407.6 z m -674.45,8.77 c -237.59,2.13 -475.18,4.25 -712.771,6.38 26.192,51.67 46.985,106.52 70.93,158.95 32.899,72.06 68.578,143.13 110.271,210.55 35.72,57.74 75.73,113.01 121.18,163.52 26.8,29.8 55.71,57.88 86.44,83.61 26.72,22.38 59.22,40.01 83.4,64.76 24.27,-9.28 49.02,-16.38 73.55,-18.94 4.47,-1.02 9.27,-1.31 14.2,-0.92 2.99,-0.09 5.98,-0.2 8.96,-0.13 1.66,0.04 2.75,1.07 3.06,2.33 23.01,6.62 42.68,26.22 28.49,49.82 -4.59,7.64 -12.46,14.32 -21.83,20.32 14.71,7.06 33.65,10.97 46.25,15.27 22.37,7.65 44.94,14.66 67.58,21.47 45.19,13.6 91.73,20.86 133.3,43.56 1.14,0.63 1.97,1.58 2.49,2.65 0.39,0.01 0.78,0.01 1.17,0.01 44.67,0.43 89.65,-0.63 134.27,1.29 19.46,0.83 41.49,0.8 56.52,15.39 8.66,8.4 12.8,16.77 13.73,24.55 46.86,2.38 93.43,10.58 140.14,14.94 68.36,6.38 136.76,10.86 205.44,11.09 90.24,0.29 180.2,-5.81 269.52,-17.51 -0.01,-0.03 -0.02,-0.06 -0.03,-0.09 -1.07,-2.94 2.72,-4.63 4.6,-2.44 0.48,0.56 0.89,1.21 1.36,1.78 3.99,-0.53 7.97,-1.1 11.94,-1.66 27.91,-65.17 18.87,-138.53 -25.05,-195.24 -1.13,-1.47 -0.2,-3.01 1.13,-3.56 -20.71,-12.78 -41.11,-26.05 -59.41,-43.62 -54.85,-52.69 -90.72,-119.78 -100.21,-193.62 -27.11,61.42 -65.52,117.13 -113.41,161.26 -83.48,76.92 -192.52,124.07 -306.29,129.21 -120.55,5.45 -247.91,-30.7 -361.99,-67.01 -123.04,-39.17 -240.76,-98.78 -317.41,-206 -0.7,-1 0.77,-2 1.54,-1.08 91.78,111.34 227.54,164.41 364.58,196.25 119.81,27.84 247.58,53.77 368.33,23.44 -0.19,-0.86 0.17,-1.89 1.19,-1.87 2.4,0.04 4.76,-0.22 7.15,-0.35 11.69,-3.21 23.33,-6.75 34.87,-11.09 11.52,-4.33 22.82,-9.24 33.99,-14.42 38.11,-25.44 71.25,-64.89 95.38,-96.36 40.27,-52.5 69.69,-113.34 85.37,-177.63 31.73,-130.09 3.51,-266.45 -70.3,-376.88 -197.87,3.07 -395.74,6.25 -593.62,8.02 z m 195.95,-106.25 c -0.37,-0.21 -0.67,-0.47 -0.99,-0.73 -1.85,9.44 -4.18,18.69 -7.33,27.59 1.1,0.09 2.2,0.17 3.3,0.26 2.14,-9.02 3.82,-18.06 5.02,-27.12 z m 44.38,44 c -14.24,-0.34 -28.53,-0.23 -42.91,0.42 -1.44,0.06 -2.72,-0.27 -3.87,-0.79 -0.75,0.78 -1.93,0.97 -3.15,0.32 -0.88,2.46 -1.84,4.91 -2.81,7.36 35.59,-0.23 71.18,-0.45 106.77,-0.62 -18.02,-2.13 -36.05,-4.29 -54.03,-6.69 z m -44.07,-18.63 c 8.35,-8.3 18.9,-14.27 30.88,-18.29 -8.53,-1.59 -17.06,-3.43 -25.58,-5.42 -1.35,7.94 -3.13,15.85 -5.3,23.71 z m 123.47,-26.68 c 0.58,-5.92 1.05,-11.85 1.25,-17.81 -28.86,7.02 -59.37,4.95 -88.53,10.45 20.45,3.54 40.98,5.86 61.67,7.03 8.91,-0.06 17.52,0.12 25.61,0.33 z m -23.47,16.81 c -26.98,-0.13 -56.63,1.9 -77.14,12.86 31.68,0.12 63.02,2.78 94.2,7.62 1.61,-6.48 2.96,-13.01 4.05,-19.6 -7.06,-0.17 -14.09,-0.47 -21.11,-0.88 z m -75,-58.98 c -2.46,0.039 -5.22,-1.961 -4.53,-4.781 7.73,-31.938 59.69,-35.231 85.36,-42.801 1.28,-0.367 6.47,-1.797 12.3,-3.437 -0.18,-0.942 -0.34,-1.891 -0.53,-2.832 -4.79,0.183 -8.93,0.25 -10.37,0.32 -27.84,1.301 -55.32,4.691 -82.77,9.391 -3.2,0.55 -5.26,-3.711 -3.21,-6.051 9.3,-10.637 17.64,-13.828 31.65,-14.149 1.72,-0.031 1.9,2.239 0.27,2.61 -5.6,2.742 -11.2,5.468 -16.8,8.211 6.33,-0.969 12.69,-1.801 19.06,-2.512 10.61,-1.258 21.25,-2.277 31.92,-2.981 9.64,-0.648 19.29,-0.929 28.93,-1.097 -14.25,-62.832 -44.82,-123.11 -82.56,-170.742 -79.12,-99.879 -200.66,-154.27 -327.7,-150.227 -121.75,3.848 -242.63,56.758 -320.79,151.52 -39.3,47.66 -67.38,103.546 -81.93,163.609 -4.59,18.937 -7.38,38.027 -8.52,57.301 24.54,-2.543 76.08,-7.551 95.82,-11.731 0.33,-1.941 0.69,-3.902 1.07,-5.84 -20.2,-8.121 -79,-30.66 -85.77,-34.882 -3.01,-1.879 -1.15,-6.43 2.33,-5.118 28.49,10.719 56.05,23.848 84.36,35.239 7.93,-37.68 23.64,-74.328 40.19,-102.469 54.39,-92.481 154.52,-162.531 263.63,-166.66 96.69,-3.66 194.97,42.859 251.26,121.929 15.91,22.352 29.35,49.489 39.04,78.692 0.06,0.008 0.12,0.019 0.17,0.039 1.39,0.441 1.68,2.238 1.05,3.437 0.08,0.25 0.13,0.493 0.21,0.743 16.54,38.468 23.46,79.898 19.74,121.159 37.72,-13.74 78.7,-5.14 116.94,-13.82 -0.01,-0.92 0.04,-1.83 0.02,-2.73 -32.86,-6.77 -65.83,-9.77 -99.84,-9.34 z m 94.6,-43.32 c -7.89,2.359 -15.79,4.68 -23.68,7.031 -10.34,3.09 -21.89,5.129 -31.79,9.481 -4.24,1.269 -8.48,2.539 -12.71,3.796 -18.14,11.09 -20.93,15.961 -8.36,14.602 9.74,5.66 34.04,1.398 45.13,2.59 12.15,1.32 24.23,3.129 36.27,5.191 -0.69,-14.25 -2.33,-28.5 -4.86,-42.691 z m -756.38,64.92 c -23.22,-3.44 -46.22,-8.07 -69,-14.1 -0.02,5.7 -0.05,11.42 0.27,17.16 0.28,5.11 0.9,10.17 1.62,15.23 21.86,-8.58 44.25,-14.25 67.11,-18.29 z m -21.99,43.39 c -13.64,-0.51 -27.28,-0.91 -40.93,-1.32 0.56,2.79 1.09,5.58 1.63,8.37 13.17,-2.02 26.28,-4.31 39.3,-7.05 z m 10.83,15.86 c 15.12,-2.28 29.91,-6.28 45.05,-8.15 -0.41,-1.05 -0.85,-2.08 -1.24,-3.14 -14.53,4.24 -29.12,8.03 -43.81,11.29 z m 38.19,-99.03 c -27.35,5.192 -54.52,11.489 -81.75,17.321 26.01,6.258 52.21,10.639 78.83,12.959 0.26,-10.01 1.29,-20.158 2.92,-30.28 z m -2.26,51.31 c -19.96,3.67 -39.75,7.94 -59.08,13.84 20.46,0.68 40.92,1.51 61.38,2.4 -1.05,-5.33 -1.81,-10.75 -2.3,-16.24 z m 12.63,47.48 c -26.11,17.66 -61.68,20.95 -94.63,18.07 0.07,0.79 0.19,1.58 0.25,2.37 35.45,-0.37 70.9,-0.72 106.36,-1.08 -4.72,-6.1 -8.67,-12.59 -11.98,-19.36 z m 78.46,-124.7 c -20.95,-2.968 -45.43,-10.621 -57.2,-26.879 -1.32,-1.832 0.76,-4.211 2.77,-3.339 10.66,4.609 19.51,12.488 30.23,17.238 8.21,3.629 16.7,6.082 25.4,7.719 4.98,-19.95 11.89,-38.161 19.63,-52.118 39.77,-71.769 117.2,-115.32 198.58,-116.742 1.69,-0.039 3.43,0.063 5.14,0.063 -3.48,-21.621 -5.83,-44.461 -2.8,-65.633 -126.1,6.43 -272.3,126.332 -295.57,257.762 1.69,0.64 3.34,1.347 5.03,1.968 1.21,0.442 0.71,2.121 -0.37,2.289 -1.89,0.321 -3.77,0.711 -5.66,1.032 -1.7,11.211 -2.48,22.5 -2.27,33.79 5.45,0.31 10.88,0.73 16.36,0.86 8.72,0.21 10.45,12.33 1.42,13.77 -5.58,0.87 -11.13,1.81 -16.69,2.75 0.77,6.93 2.05,13.85 3.62,20.74 3.37,2.31 4.37,7.22 2.85,11.11 3.72,12.65 8.88,25.19 15.6,37.54 25.67,-0.26 51.34,-0.52 77.01,-0.79 -33.18,-32.26 -34.64,-92.52 -23.08,-143.13 z m 440.15,25.899 c -1.47,-17.098 -4.24,-34.438 -9.13,-51.071 -1.37,1.071 -2.78,2.051 -4.11,3.184 -2.61,2.188 -5.51,-2.07 -3.03,-4.293 1.65,-1.48 3.46,-2.969 5.32,-4.457 -4.65,-14.191 -10.85,-27.82 -19.37,-40.184 -0.41,-0.597 -0.89,-1.136 -1.32,-1.738 -0.4,0.488 -0.88,0.891 -1.28,1.379 -1.53,1.859 -4.35,-0.5 -2.88,-2.398 0.54,-0.711 1.18,-1.45 1.75,-2.161 -39.22,-52.429 -109.73,-80.351 -175.02,-82.332 -0.51,1.614 -2.92,1.711 -3.65,-0.027 -7.38,-0.121 -14.72,0 -21.91,0.551 -64.25,4.988 -123.81,38.43 -161.36,90.93 -12.55,17.546 -23.02,39.859 -29.88,63.937 1.13,1.09 0.65,3.07 -0.94,3.762 -13.13,49.129 -10.99,104.709 18.96,142.069 130.52,-1.34 261.05,-2.63 391.57,-3.6 0.49,-0.61 0.94,-1.23 1.68,-1.75 28.84,-19.93 17.17,-82.13 14.6,-111.801 z m -191.3,-265.457 c -7.58,-0.43 -15.18,-0.66 -22.79,-0.422 -0.16,0.012 -0.32,0.031 -0.48,0.031 1.7,22.16 1.58,43.961 3.86,65.938 4.06,0.089 8.12,0.3 12.22,0.57 0.35,-11.43 0.98,-22.859 2.31,-34.25 1.2,-10.18 1.95,-21.578 4.88,-31.867 z m 243.61,182.09 c -4,-11.582 -8.78,-22.891 -14.29,-33.84 -2.2,-3.223 -4.38,-6.461 -6.75,-9.614 -0.98,-1.308 -0.92,-2.648 -0.35,-3.75 -3.01,-5.207 -6.2,-10.328 -9.56,-15.328 -45.86,-68.191 -123.51,-112.121 -204.97,-119.039 -1.54,9.77 -4.68,19.52 -6.34,29.168 -2.1,12.172 -3.4,24.43 -4.35,36.731 64.15,5.441 131.22,34.351 170.96,85.25 11.81,-11.961 26.73,-23.039 41.75,-24.969 2.02,-0.262 3.13,2.598 1.4,3.738 -8.72,5.68 -18.95,8.699 -27.71,14.66 -4.52,3.071 -8.72,6.512 -12.71,10.18 4.27,5.77 8.32,11.711 11.85,18.02 4.65,8.3 8.34,16.972 11.51,25.82 14.97,-9.359 32.9,-16.809 49.56,-17.027 z m 8.75,196.408 c 2.48,-0.02 4.95,-0.03 7.43,-0.04 1.07,-3.23 2.1,-6.46 3.06,-9.7 -1.4,-1.04 -2.78,-2.1 -4.16,-3.15 -1.92,4.4 -4.04,8.68 -6.33,12.89 z m -54.68,0.34 c 14.64,-0.11 29.28,-0.17 43.92,-0.27 8.32,-42.1 20.23,-78.93 17.03,-123.389 -1.57,-21.82 -5.75,-43.472 -12.24,-64.402 -9.43,1.051 -18.95,1.402 -28.38,4.352 -7.74,2.418 -15,5.718 -21.88,9.711 10.13,31.367 12.43,65.339 12.62,98.018 0.15,25.2 3.52,55.36 -11.07,75.98 z m -753.598,549.79 c 6.84,25.09 12.754,65.96 34.051,81.39 8.852,6.4 18.067,7.77 27.167,9.45 -0.55,-2.07 -1.1,-4.13 -1.682,-6.28 -18.551,-67.96 -42.852,-134.12 -60.762,-202.25 -5.805,-22.1 -13.262,-47.16 -18.77,-72.7 -24.883,-1.05 16.856,178.88 19.996,190.39 z m 69.998,24.3 c 9.95,24.43 21.33,48.28 30.1,73.18 4.63,13.15 8.95,21.25 14.58,26.48 -18.9,-53.61 -34.16,-108.9 -50.72,-163.09 -15.962,-52.25 -33.723,-104.46 -47.372,-157.39 -7.07,-13.55 -13.925,-27.21 -20.664,-40.94 6.071,34.88 8.676,71.57 18.176,104.7 15.258,53.22 35.027,105.8 55.9,157.06 z m 84.58,110.5 c 33.84,2.85 76.64,0.72 113.64,8.04 -22.61,-21.48 -43.5,-44.11 -61.74,-63.69 -49.16,-52.74 -92.41,-110.67 -130.64,-171.77 -12.97,-20.73 -25.314,-41.84 -37.22,-63.18 l 29.32,95.48 c 10.85,35.34 21.71,70.67 32.22,106.12 8.06,27.2 19.55,55.56 23.79,83.92 7.42,2.93 17.01,3.92 30.63,5.08 z m 180.09,123.68 c -29.7,14.45 -58.86,29.99 -87.65,46.16 -10.51,5.91 -20.88,12.04 -31.27,18.13 29.09,0.32 58.17,0.59 87.26,0.87 18.47,-20.83 59.79,-35.2 78.26,-45.71 24.06,-13.69 48.09,-27.4 72.31,-40.81 1.11,-0.62 4.57,-2.18 8.91,-4.16 -9.3,-4.75 -16.15,-15.15 -16.01,-25.89 -35.92,19.68 -76.17,34.06 -111.81,51.41 z m 140.52,-0.86 c -0.17,-0.08 -0.35,-0.16 -0.52,-0.24 -15.84,7.51 -32.15,13.88 -43.32,19.86 -3.6,1.93 -55.56,28.82 -92.57,46.76 40.64,0.4 81.27,0.83 121.91,1.22 66.66,0.64 133.33,1.27 200,1.91 -26.48,-6.72 -52.57,-16.03 -77.98,-24.65 -27.08,-9.18 -84.98,-19.74 -107.52,-44.86 z m -0.67,-33.53 c 1.75,0.51 3.5,0.62 5.21,0.47 5.69,-3.06 10.08,-5.91 10.19,-7.57 0.56,-8.41 -11.08,-14.49 -21.07,-16.96 3.06,3.26 5.25,7.38 6.29,12.03 0.86,3.83 0.72,8.3 -0.62,12.03 z m -338.03,126.33 c -0.68,2.56 -1.23,5.18 -1.38,7.92 -0.48,8.71 1.25,16.9 4.59,24.76 116.38,0.25 232.8,0.88 349.25,-0.12 66.55,-0.58 133.1,-1.07 199.65,-1.54 34.87,-0.25 69.73,-0.49 104.59,-0.75 13.4,-0.08 26.8,-0.18 40.19,-0.28 9.14,-0.93 17.46,-0.53 24.93,1.14 14.32,1.34 30.9,2.78 39.46,-1.6 13.93,3.07 16.66,-4.33 8.21,-22.22 -3.99,-0.45 -7.99,-0.91 -11.98,-1.38 -12.25,-5.02 -51.33,-0.67 -66.12,-0.8 -31.97,-0.31 -63.93,-0.61 -95.9,-0.92 -70.33,-0.66 -140.67,-1.34 -210.99,-2.01 -70.33,-0.68 -140.66,-1.34 -210.99,-2.01 -20.05,-0.2 -112.05,-8.25 -173.51,-0.19 z m -9.06,1.36 c -4.98,0.83 -9.7,1.79 -14.1,2.9 -2.15,2.44 -4.19,4.99 -5.31,8.39 -2.24,6.78 -1.6,13.83 1.58,19.95 7.59,0.01 15.18,0.04 22.76,0.06 -3.53,-9.27 -5.82,-20.8 -4.93,-31.3 z m -47.45,46.53 c -82.271,5.2 -165.036,3.22 -247.321,-1.02 -42.797,-2.22 -85.426,-5.51 -128.012,-10.35 -19.442,-2.2 -40.988,-2.55 -61.649,-4.9 -15.152,213.25 -15.621,427.23 -0.316,640.49 6.648,92.66 9.613,194.64 50.816,280.02 55.207,49.1 144.028,65.27 213.957,79.66 101.903,20.97 204.885,36.72 308.375,47.23 211.65,21.49 424.88,20.34 636.42,-1.67 4.01,-6.03 7.17,-13.12 9.01,-21.81 9.89,-46.88 5.17,-99.57 5.59,-147.29 0.48,-52.95 0.08,-105.91 -0.54,-158.85 -1.33,-114.2 -4.24,-228.5 -1.09,-342.69 1.54,-55.84 3.96,-111.79 8.91,-167.45 3.97,-44.62 32.17,-159.82 -22.85,-181.83 -75.47,1.02 -151.05,0.37 -226.47,0.91 -95.09,0.67 -190.18,1.14 -285.27,1.68 -83.85,0.47 -175.5,10.08 -257.37,-11.12 -0.81,-0.22 -1.53,-0.57 -2.19,-1.01 z m -376.583,923.21 c 52.918,92.8 140.199,116.71 240.461,123.98 211.912,15.36 425.102,19.21 637.492,16.42 50.83,-0.66 101.64,-1.82 152.45,-3.42 36.64,-1.16 85.78,3.17 111.69,-22.5 -234.09,23.79 -470.26,21.92 -703.8,-7.44 -114.32,-14.37 -231.895,-31.47 -342.668,-63.95 -35.902,-10.53 -70.695,-26.17 -98.578,-48.65 1.004,1.84 1.906,3.73 2.953,5.56 z M 2142.48,2091.36 c -53.56,13.76 -115.36,47.35 -83.48,108.87 0.68,0.14 1.4,0.3 2.15,0.45 125.51,-92.56 320.45,-91.84 472.49,-99.23 -1.76,-20.83 -7.36,-38.97 -14.05,-57.22 -87.14,11.52 -174.87,17.53 -262.85,17.71 -37.98,10.21 -76.11,19.61 -114.26,29.42 z m -112.21,177.88 c 20.78,5.15 40.66,11.39 56.57,15.33 56.56,13.97 112.42,33.23 166.53,54.66 41.81,16.55 84.64,34.33 125.61,55.43 -6.12,-7.54 -12.15,-15.16 -18.16,-22.79 -5.44,-4.89 -10.99,-9.65 -16.66,-14.29 -80.43,-65.81 -179.46,-104.72 -282.42,-113.51 -10.8,7.75 -21.29,16.14 -31.47,25.17 z m 194.11,761.47 c -23.82,20.9 -44.42,44.48 -59.72,72.54 -3.85,7.04 -37.35,87.04 -18.71,85.02 8.47,-0.92 32.57,-57.5 37.95,-66.53 11.94,-20.07 24.35,-39.53 37.37,-58.84 0.86,-10.75 1.89,-21.48 3.11,-32.19 z m 15.82,-96.62 c -8.97,-8.94 -41.29,-37.93 -46.26,-40.79 -14.3,-8.22 -34.11,-17.92 -49.97,-20.35 -9.77,-4.2 -19.43,-3.75 -28.95,1.37 7.8,3.12 15.51,6.44 23.13,9.96 17.87,8.05 35.38,16.84 52.47,26.44 7.14,4.01 36.97,16.46 48.28,29.86 0.11,-0.56 0.22,-1.12 0.34,-1.68 0.03,-0.34 0.02,-0.64 0.19,-0.95 0.27,-1.28 0.5,-2.57 0.77,-3.86 z m -297.49,-640.75 c -62.32,243.81 -34.48,499.45 31.11,739.87 48.4,177.37 135.2,405.5 309.72,496.39 12.32,-8.86 26.16,-14.18 39.97,-19.62 28.82,-34.49 58.91,-67.73 90.16,-99.93 -17.68,7.9 -37.36,11.7 -56.09,10.52 -45.36,-2.87 -81.47,-33.9 -103.16,-72.25 -34.58,-61.12 -36.03,-140.38 -36.23,-208.71 -0.07,-21.73 0.71,-43.39 2.17,-64.98 -33.72,69.97 -70.83,166.65 -39.76,238.56 0.25,0.57 -0.67,0.92 -0.89,0.34 -22.33,-57.69 -6.9,-118.22 11.79,-175.15 5.85,-17.81 12.85,-35.03 19.98,-52.36 3.2,-7.78 4.92,-11.91 5.67,-13.68 -1.63,3.79 -7.19,16.5 -10.81,22.47 -22.12,36.4 -43.47,73.12 -63.7,110.61 -0.93,1.73 -3.31,2.13 -4.53,0.43 -16.55,-22.98 2.38,-62.08 12.31,-85.03 16.98,-39.23 41.96,-72.23 73.61,-100.72 0.54,-0.49 1.09,-0.73 1.64,-0.86 2.52,-19.94 5.66,-39.8 9.38,-59.57 -0.05,-0.04 -0.11,-0.03 -0.16,-0.07 -67.96,-57.52 -146.36,-89.94 -227.15,-34.1 -0.2,0.14 -0.41,-0.16 -0.22,-0.3 43.93,-31.67 97.53,-41.67 148.83,-22.36 16.01,6.03 64.25,44.24 74.65,38.29 -1.96,1.13 -63.61,-37.02 -72.27,-41.27 -20.14,-9.87 -40.77,-18.42 -61.7,-26.48 -1.94,-0.75 -2.27,-3.82 -0.46,-4.92 43.34,-26.35 109.11,19.07 145.77,56.14 1.62,-7.21 3.23,-14.42 5,-21.6 1.45,-5.92 7.48,-12.55 14.42,-10.47 16.27,4.88 32.41,10.09 48.56,15.27 -0.97,-20.04 8.15,-45.66 10.52,-59.56 9.98,-58.4 22.25,-116.17 35.6,-173.89 0.88,-3.81 3.04,-6.43 5.74,-8.02 0.45,-2.11 1.76,-4.04 4.34,-4.98 21.48,-7.87 43.56,-14.68 65.98,-20.79 12.21,-30.31 28.48,-58.69 42.53,-88.08 -169.79,-86.33 -340.16,-186.7 -529.14,-222.32 -0.24,-0.04 -0.18,-0.39 0.06,-0.37 161.82,18.35 306.57,101.49 449.82,173.3 18.51,9.27 37.02,18.55 55.52,27.83 7.94,3.97 15.87,7.95 23.8,11.93 -2.39,-11.1 -8.27,-19.57 -17.64,-25.41 -26.81,-28.43 -69.49,-52.18 -102.77,-71.67 -73.35,-42.95 -151.97,-70.8 -233.22,-94.65 -1.62,-0.48 -1.45,-2.67 0.03,-2.87 -19.17,-6.01 -38.39,-11.92 -57.67,-17.79 -35.84,-10.92 -88.39,-14.77 -121.11,-37.12 z m 359.1,1245.14 c 1.19,-2.58 2.72,-4.98 4.71,-7.1 -0.32,0.28 -0.82,-0.12 -0.53,-0.48 1.77,-2.19 3.63,-4.29 5.41,-6.46 -6.12,2.9 -12.3,6.15 -18.51,9.73 2.97,1.44 5.89,2.95 8.92,4.31 z m 32.93,31.26 c 7.76,-7.57 17.64,-13.21 26.77,-19.63 27.87,-19.58 56.74,-37.82 85.18,-56.56 20.43,-13.47 57.47,-26.84 55.72,-50.58 -0.58,-7.68 -11.33,-24.29 -20.75,-41.03 -16.66,17.15 -36.66,31.43 -54.3,47.56 -23.76,21.72 -45.79,45.55 -70.49,66.25 -6.28,5.26 -29.6,16.63 -32.81,24.18 -1.25,2.92 -1.89,5.44 -2.12,7.69 0.59,0.98 0.49,2.13 -0.01,3.21 0.79,8.49 8.46,12.5 12.81,18.91 z m -28.76,98.47 c -22,26.09 -38.55,56.52 -52.49,87.52 -13.87,30.83 -25.38,62.78 -34.89,95.21 -5.73,19.52 -10.82,39.1 -14.25,59.18 -1.49,8.67 -8.06,33.63 -10.3,50.47 65.66,-3.78 131.11,-4.18 196.89,0.59 59.87,4.34 124.12,9.03 183.76,23.68 -13.44,-36.58 -39.93,-69.06 -53.43,-105.03 -8.09,33.86 -29.32,67.98 -63.94,66.65 -45.46,-1.74 -80.7,-56.42 -93.23,-94.75 -12.01,-36.73 -14.16,-92.36 13.83,-123.19 7.31,-8.05 17.48,-13.58 28.37,-16.32 4.27,-14.92 10,-29.37 16.95,-43.32 -15.32,-6.92 -28.23,-20.75 -39.87,-32.16 -6.21,-6.08 -12.12,-12.42 -17.85,-18.9 -20.91,15.78 -41.76,29.24 -59.55,50.37 z m -126.03,323.93 c 0.01,3.29 0.14,6.59 0.19,9.88 9.2,-1.59 18.41,-3.05 27.63,-4.36 4.22,-1.29 8.63,-2.26 13.23,-2.95 0.29,-1.44 0.67,-2.79 1.07,-4.12 -14.04,0.39 -28.1,0.81 -42.12,1.55 z m 0.48,25.05 c 5.31,-7.69 11.74,-12.83 19.01,-16.31 -6.43,0.76 -12.85,1.63 -19.28,2.5 0.07,4.61 0.14,9.21 0.27,13.81 z m 31.91,219.39 c 23.51,83.01 92.55,107.3 158.94,145.08 0.22,-0.14 0.42,-0.3 0.64,-0.43 -33.16,-21.97 -63.82,-47.5 -90.7,-76.97 -7.79,-8.54 -25.51,-24.89 -32.47,-40.8 0.1,0.94 -1.34,1.07 -1.49,0.13 -10.71,-67.61 -18.47,-135.34 -22.52,-203.68 -0.75,-12.5 -7.14,-40.55 -4.39,-61.3 -1.91,0.19 -3.82,0.43 -5.73,0.63 -14.28,3.67 -26.43,10.14 -33.79,21.15 -0.09,0.15 -0.22,0.14 -0.33,0.22 2.27,72.88 11.95,145.79 31.84,215.97 z m 74.07,-246.66 c -18.76,-0.21 -37.52,-0.06 -56.27,0.37 -0.38,1.1 -0.76,2.19 -1.09,3.42 2.23,-0.22 4.46,-0.43 6.75,-0.6 7,-0.53 14.03,-0.87 21.08,-1.11 9.83,-0.85 19.67,-1.57 29.53,-2.08 z m 142.17,388.28 c 4.61,1.55 9.62,3.69 14.41,6.4 48.35,-41.95 84.65,-88.96 115.71,-143.04 0,-0.03 -0.03,-0.05 -0.01,-0.08 32.63,-55.14 38.77,-107.53 38.6,-170.79 -0.01,-3.88 -0.58,-8.78 -1.2,-14.09 -22.73,-8.79 -45.54,-18.85 -67.11,-24.65 -36.49,-9.82 -73.53,-17.55 -110.89,-23.26 -34.48,-5.27 -69.19,-8.77 -104.04,-10.48 -12.23,-0.6 -29.24,-2.41 -47.2,-3.02 -12.94,0.66 -25.86,1.52 -38.77,2.69 -10.65,51.89 10.63,197.11 18.33,249.38 0.78,-3.62 2.52,-7.05 5.83,-10.13 1.54,-1.44 4.13,0.56 2.59,2.16 -6.84,7.11 3.86,31.41 8.29,38.79 3.51,5.85 8.66,11.32 13,16.58 12.23,14.84 25.39,28.99 39.44,42.14 17.55,16.44 36.61,31.01 56.59,44.27 16.44,-9.7 39.12,-8.66 56.43,-2.87 z m -40.12,36.14 c 1.17,0.52 2.32,1.08 3.49,1.59 0.83,-1.44 2.13,-2.84 4.08,-4.17 8.57,-5.83 17.99,2.74 25.62,5.98 5.16,3.05 10.57,3.32 16.23,0.81 1.78,-8.17 -1.01,-13.41 -8.37,-15.7 -1.6,-0.85 -3.32,-1.44 -4.99,-2.14 -0.84,0.56 -1.66,1.18 -2.5,1.74 -0.2,0.14 -0.41,-0.15 -0.22,-0.3 0.72,-0.57 1.39,-1.14 2.11,-1.7 -4.03,-1.63 -8.18,-2.99 -12.43,-3.74 -4.06,-0.73 -12.45,-0.35 -19.78,1.14 -0.4,2.3 -2.3,4.23 -5.51,3.94 -0.75,-0.07 -1.55,-0.23 -2.31,-0.31 -0.08,0.79 -0.15,1.6 -0.09,2.38 0.28,4.03 2.13,7.47 4.67,10.48 z m 68.01,-19.43 c 74.55,-29.54 164.27,-20.44 240.72,-43.49 44.4,-13.39 59.91,-64.37 78.79,-103.47 16.21,-33.57 28.67,-69.41 49.19,-100.57 -0.04,-0.22 -0.03,-0.43 -0.05,-0.64 -64.96,-26.02 -124.24,-63.61 -180.21,-105.47 -3.46,1.14 -6.95,2.14 -10.38,3.43 -2.04,0.77 -3.17,-2.3 -1.18,-3.16 2.57,-1.11 5.2,-2.1 7.81,-3.14 -7.89,-5.94 -15.73,-11.94 -23.5,-18.02 -2.49,2.03 -5.6,3.28 -9.07,3.3 -0.14,1 -0.7,1.92 -2.1,2.07 -1.69,0.17 -3.39,0.23 -5.08,0.36 -0.98,5.63 -1.34,11.93 -1.31,18.5 20.1,6.08 39.15,13.86 52.02,25.25 1.16,1.03 1.52,3.02 0.38,4.23 -0.72,0.76 -1.44,1.52 -2.15,2.29 -0.71,0.73 -2.05,1.28 -3.02,0.68 -0.73,-0.44 -1.47,-0.89 -2.21,-1.34 -1.85,-1.13 -1.3,-4.34 1.18,-3.92 -14.88,-2.52 -30.26,-7.61 -45.72,-13.46 0.84,13.91 2.45,27.45 2.33,36.34 -0.24,18.64 -0.83,37.37 -3.75,55.81 -2.65,16.81 -6.81,33.54 -13.31,49.17 -26.03,73.28 -78.92,138.82 -140.77,186.17 4.22,2.57 8.15,5.61 11.39,9.08 z m 373.58,-258.78 c -50.96,-37.95 -104.38,-71.99 -160.04,-102.22 -5.71,1.45 -11.4,2.99 -17.05,4.7 24.78,17.64 49.78,34.94 75.71,50.78 19.17,11.72 38.77,22.66 58.86,32.68 6.52,3.24 12.1,6.37 16.55,9 -2.82,-1.97 -6.19,-4.37 -10.26,-7.34 -1.18,-0.86 0.08,-2.89 1.39,-2.2 10.72,5.65 21.19,11.52 31.6,17.62 0.79,-1.2 1.88,-2.2 3.24,-3.02 z m 215.62,-40.1 c -49.93,-55.35 -140.56,-98.81 -214.55,-96.39 -36.83,1.2 -73.29,14.15 -109.03,22.31 -16.28,3.73 -32.59,7.09 -48.75,11.09 55.84,29.64 109.15,63.37 160.2,101.46 66.86,-22.01 140.01,-32.42 212.13,-38.47 z m 9.35,-0.74 c 17.83,-1.4 35.6,-2.64 53.14,-3.66 -133.87,-122.3 -312.83,-117.72 -482.6,-82.74 13.72,6.54 27.27,13.36 40.68,20.37 31.08,-10.13 63.4,-17.11 94.96,-24.72 33.75,-8.14 66.98,-15.71 101.88,-10.73 69.83,9.96 145.82,47.72 191.94,101.48 z m -433.58,-79.26 c 9.01,6.49 18.06,12.94 27.1,19.4 4.87,-1.84 9.78,-3.55 14.74,-5.2 -13.07,-7 -26.25,-13.82 -39.57,-20.39 -0.3,2.14 -1.09,4.26 -2.27,6.19 z m -26.53,10.54 c -62.46,2.79 -127.18,-22.21 -189.09,-28.41 -23.73,-2.37 -47.54,-3.64 -71.35,-4.1 16.76,1.27 33.44,2.93 49.88,4.82 51.99,5.99 103.47,15.96 153.92,29.83 16.21,4.45 36.61,8.65 56.43,14.32 -0.42,-5.69 -0.5,-11.34 0.21,-16.46 z m 256.3,-256.22 c 19.71,-25.21 39.75,-29.33 -5.35,-49.84 -2.87,-1.3 -5.43,-4.4 -5.51,-7.67 -0.65,-24.1 2.94,-30.25 -21.08,-35.34 -22.51,-4.77 -47.89,3.42 -68.59,11.08 -8.1,3 -15.91,-5.51 -12.47,-13.34 8.86,-20.19 19.19,-38.14 34.49,-54.24 23.48,-24.7 47.67,-25.46 44.08,-67.68 -1.68,-19.68 -11.47,-36.45 -25.17,-49.56 -17.52,-16.74 -30.39,-15.1 -53.17,-13.56 -29.04,1.96 -57.86,7.83 -85.49,16.94 -108.32,35.73 -172.55,109.76 -226.99,203.35 15.07,1.13 29.19,8.03 36.94,21.98 2.68,4.83 -1.75,13.04 -7.84,9.47 -80.77,-47.33 -93.36,63.93 -67.3,116.7 11.79,23.86 44.94,66.03 69.26,32.05 13.63,-19.06 14.89,-42.39 31.04,-60.3 11.67,-12.93 35.06,-7.2 36.68,11.21 0.15,1.77 0.2,3.65 0.24,5.52 13.65,30.15 28.69,58.09 45.22,87 10.22,17.89 18.97,36.19 23.88,55.87 7.19,2.09 14.37,4.22 21.37,6.67 0.03,0.01 0.04,0.01 0.06,0.02 65.55,-26.18 136.72,-39.06 207.23,-37.83 -6.6,-47.27 -11.59,-96.14 3.93,-142.16 5.62,-16.65 13.71,-32.48 24.54,-46.34 z m -337.79,-215.37 c -45.55,8.13 -71.42,46.49 -92.54,84.44 4.23,3.88 8.23,7.91 11.75,12.19 21.07,-35.76 50.27,-67.66 83.94,-94.45 -1.07,-0.68 -2.1,-1.44 -3.15,-2.18 z m -39.08,-47.02 c -1.51,0.88 -2.95,1.74 -4.27,2.58 -23.51,15.03 -46.97,30.14 -70.59,45 -8.04,5.05 -22.6,11.23 -35.76,18.2 11.01,16.04 22.78,31.59 35.95,45.9 5.14,5.59 11.25,10.85 17.28,16.23 12.24,-23.14 26.16,-46 44.84,-62.88 -5.32,3.04 -10.41,5.98 -15.11,8.43 -17.69,9.18 -35.38,18.37 -53.08,27.55 -3.5,1.82 -5.98,-3.65 -3.11,-5.88 21.74,-16.81 45.64,-35.06 71.68,-44.49 2.19,-0.79 3.85,2.25 1.92,3.62 -5.15,3.65 -10.4,7.09 -15.69,10.49 l 12.14,-6.37 c 14.66,-7.7 28.24,-16.36 43.99,-18.59 -12.49,-11.44 -23,-26.49 -30.19,-39.79 z m -32.7,-98.6 c 10.22,-8.38 20.87,-16.01 32.21,-22.43 -0.38,-0.81 -0.83,-1.65 -1.19,-2.45 -2.39,0.5 -4.79,1 -7.18,1.49 -4.61,4.4 -9.93,8.27 -16.07,11.48 -2.51,4.02 -5.17,7.94 -7.77,11.91 z m -11.98,-7.94 c -13.49,13.02 -26.76,26.28 -39.9,39.65 -21.55,21.97 -42.38,44.59 -62.86,67.54 7.95,-3.17 15.8,-6.59 23.34,-10.75 22.92,-20.48 44.15,-44.44 66.7,-66.27 8.1,-10.95 15.72,-22.09 22.95,-32.95 -1.11,-0.57 -2.13,-1.32 -2.93,-2.33 -2.34,1.81 -4.8,3.48 -7.3,5.11 z m -168.08,-96.71 c 8.65,26.68 22.09,51.3 44,69.8 26.6,22.44 54.63,27.14 81.22,20.7 -6.31,0.08 -12.9,-0.56 -19.9,-2.26 -44.12,-10.73 -84.5,-48.16 -105.32,-88.24 z m 21.14,-379.45 c -4.57,-1.44 -9.12,-2.92 -13.7,-4.33 -9.46,40.25 -16.43,80.98 -20.86,121.96 9.13,-41.74 21.5,-81.85 34.56,-117.63 z m 214.97,143.93 c 2.28,-19.76 12.82,-50.13 -1.24,-66.27 -12.47,-14.32 -58.45,-23.66 -76.74,-30.58 -44,-16.67 -88.53,-31.81 -133.4,-45.95 -23.17,64.34 -38.64,131.88 -43.34,200.19 -0.55,33.67 0.6,67.41 4.04,101.11 1.3,12.77 2.94,25.93 5.28,39.05 8.89,31.43 24.37,60.23 50.22,83.48 23.23,20.87 60.83,45.04 94.04,40.82 2.47,-0.32 4.76,-0.99 7.11,-1.55 15.59,-6.59 30.4,-16.7 43.84,-28.92 0.19,-1.2 0.43,-2.5 0.71,-3.95 0.79,-4.15 3.53,-7.94 7.63,-9.35 2.23,-0.77 4.24,-1.31 6.14,-1.7 13.63,-34.76 13,-79.5 16.86,-112.92 6.28,-54.49 12.57,-108.97 18.85,-163.46 z m 18.7,-243.93 c 0.76,-0.76 1.74,-1.32 2.58,-2.01 -22.49,-6.22 -43.04,-17.51 -59.99,-34.63 -0.83,-0.84 0.27,-2.24 1.21,-1.44 18.46,15.71 38.73,27.44 61.17,34.21 1.12,-0.78 2.27,-1.54 3.49,-2.23 -12.15,-4.26 -23.75,-9.8 -34.56,-17.23 -8.51,-5.83 -16.44,-12.52 -23.51,-20.04 -8.87,-9.41 -20.52,-34.1 -36.17,-30.78 -0.41,0.09 -0.57,-0.6 -0.17,-0.72 19.5,-5.86 32.32,22.17 43.94,33.39 12.15,11.73 26.38,21.23 41.82,28.03 3.25,1.43 9.15,2.9 14.02,4.62 0.13,-0.06 0.24,-0.14 0.37,-0.19 -2.2,-1.49 -4.09,-2.77 -4.23,-2.88 -16.24,-12.3 -43.16,-36.49 -46.11,-57.9 -1.17,-8.46 2.41,-16.04 11.58,-12.44 1.24,0.49 0.55,2.23 -0.64,2.14 -19.25,-1.49 16.51,45.67 17.94,47.21 7.9,8.54 16.52,15.79 25.95,22.22 16.33,-5.81 36.36,-7.63 49.88,-11.99 34.31,-11.08 67.33,-26.23 100.17,-40.95 115.72,-51.86 242.36,-109.34 369.14,-134.34 -22.12,-20.61 -37.51,-45.98 -44.78,-75.02 -99.02,21 -200.01,35.41 -299.19,55.13 -108.22,21.5 -219.23,55.5 -329.15,66.88 0.1,1.22 0.07,2.51 -0.27,3.93 -10.84,45.5 -20.77,91.17 -31.12,136.77 -7.03,31.01 -19.42,65.34 -23.79,97.72 56.52,18.56 112.23,39.27 167.33,61.81 2.43,-33.08 6.54,-66.14 10.27,-99.05 1.81,-16.01 0.26,-37.78 12.82,-50.22 z m 552.95,-200.86 c -10.6,-14.87 -19.41,-30.57 -26.35,-47.11 2,18.01 4.72,35.58 17.11,48.89 3.08,-0.58 6.15,-1.24 9.24,-1.78 z m 19.96,-3.15 c -1.04,-4.22 2.89,-9 8.4,-7.22 33.62,10.94 66.36,23.76 100.52,33.13 16,4.39 35.77,13.35 51.51,1.93 9.05,-6.58 21.79,-34.57 27.79,-45.15 19.25,-33.97 45,-72.98 13.47,-105.91 5.65,30.34 -14.75,67.52 -35.27,86.01 -0.63,0.56 -1.61,-0.48 -1.01,-1.09 13.17,-13.64 22.49,-29.89 26.46,-48.54 3.44,-16.15 -0.37,-30.24 -0.86,-45.73 -3.95,-2.8 -9.69,-5.98 -16.51,-9.11 3.03,9.3 3.19,20.28 2.47,29.17 -1.34,16.64 -8.01,31.63 -18.93,44.14 -0.65,0.74 -1.67,-0.17 -1.15,-0.96 9.03,-13.75 13.38,-29.3 11.89,-45.78 -1.15,-12.72 -8.57,-21.68 -11.25,-33.38 -18.39,-6.31 -39.06,-10.13 -52.48,-5.66 22.51,17.54 30.99,52.46 14.33,76.83 -23.73,34.71 -83.84,17.77 -102.02,-14.27 -1.98,-3.49 0.26,-8.08 3.92,-8.28 -1.88,-5.48 -2.75,-11.3 -2.11,-16.94 0.15,-1.32 0.45,-2.61 0.71,-3.9 -8.9,5.33 -17.99,10.28 -25.66,17.49 -8.98,8.43 -15.87,18.14 -20.9,29.18 1.14,2.26 2.01,4.62 2.5,7.4 0.44,2.52 -1.86,5.18 -4.35,5.35 -5.14,0.33 -9.1,-0.69 -13.77,-2.8 -4.72,-2.14 -6.54,-7.3 -5.3,-12.06 -1.17,0.27 -2.34,0.52 -3.51,0.78 1.91,7.55 3.03,15.4 3.91,23.33 6.84,19.61 16.56,37.87 28.2,55.01 6.33,-1.11 12.67,-2.04 19,-2.97 z m 278.17,71.06 c 26.64,10.97 58.06,13.16 84.3,24.33 0.16,-39.54 -2.18,-82.29 11.96,-118.31 3.44,-8.76 18.06,-8.59 20.77,0.71 10.99,37.73 4.52,80.05 2.15,119.64 13.38,-0.13 27.35,1.62 37.87,1.72 6.58,0.06 13.16,0.24 19.75,0.35 -1.33,-61.11 -2.46,-125.63 7,-186.43 -30.57,-0.94 -60.98,-1.16 -91.77,-9.62 -49.8,-13.7 -95.99,-35.12 -148.04,-34.75 14.71,14.09 20.95,32.48 14.36,60.22 -6.39,26.97 -23.03,52.02 -37.14,75.58 -2.88,4.8 -5.8,10.32 -8.93,15.91 27.49,19.88 56.25,37.69 87.72,50.65 z m 194.13,28.73 c -2.5,-62.15 -2.39,-124.16 0.67,-186.28 -1.24,-0.05 -2.49,-0.11 -3.73,-0.16 -3.17,62.09 -10.75,123.76 -11.73,186.19 4.92,0.08 9.85,0.17 14.79,0.25 z m 33.29,0.59 c 2.55,-59.13 0.16,-124.38 11.25,-182.84 -11.66,-1.88 -23.26,-3 -34.81,-3.64 -4.67,61.89 -7.31,123.86 -7.36,185.94 10.31,0.19 20.61,0.33 30.92,0.54 z m 13.81,-194.67 c -12.52,-0.86 -25.03,-1.85 -37.51,-3.03 0.48,0.78 0.82,1.69 0.73,2.82 -0.04,0.46 -0.06,0.92 -0.1,1.37 11.9,0.33 23.33,1.51 35.54,5.03 0.43,-2.07 0.87,-4.13 1.34,-6.19 z M 3410.54,1395.85 c 50.84,121.94 86.05,258.29 104.76,389.03 18,125.86 -12.04,238.77 -75.22,347.77 -33.05,57.05 -77.86,111.46 -66.09,181.92 10.51,62.85 59.35,115.5 103.79,159.62 2.28,-6.15 4.75,-12.27 7.28,-18.36 -56.33,-58.93 -111.82,-134.71 -78.32,-218.88 21.82,-54.84 62.42,-100.32 85.26,-155.22 24.92,-59.92 38.3,-124.12 43.38,-188.68 11.06,-139.94 -21.65,-279.66 -68.55,-410.65 -34.68,-96.86 -78.9,-185.6 -159.11,-235.48 46.6,41.69 82.98,101.33 102.82,148.93 z m -252.3,-111.58 c -20.81,3.99 -41.52,7.94 -62.08,12.51 68.39,1.35 138.05,17.1 191.64,47.4 43.77,24.76 82.04,64.01 112.78,109.63 -15.23,-43.94 -33.44,-87.11 -61.25,-124.05 -20.27,-26.92 -44.83,-50.52 -72.64,-69.59 -14.36,-9.87 -30.28,-16.95 -45.64,-24.82 -10.55,25.05 -34.02,43.38 -62.81,48.92 z m -427.36,19.88 c 2.97,7.45 5.76,15.19 9.25,22.41 43.15,-17.8 87.7,-26.92 135.06,-25.53 19.18,0.56 61.12,1.29 89.1,11.51 26.03,-13.73 56.35,-23.46 78.45,-30.82 40.93,-13.63 136.18,-15.93 149.84,-63.68 -0.96,-0.73 -1.96,-1.38 -2.91,-2.14 -2.51,-2.02 -3.67,-5.23 -3.71,-8.47 -76.38,-17.37 -157.26,-13.97 -235.86,-14.88 -84.11,-0.98 -168.17,0.81 -252.24,3.23 8.43,36.96 18.95,73.09 33.02,108.37 z m -42.33,-3.65 c -13.31,-33.46 -23.54,-68.03 -30.56,-103.55 -5.7,0.18 -11.39,0.34 -17.09,0.51 -0.76,0.03 -1.4,-0.17 -2.09,-0.28 -20.53,7.99 -40.63,17.24 -59.99,29.78 -43.33,28.07 -85.98,56.28 -120.12,95.63 -4.34,4.99 -8.53,10.13 -12.57,15.41 78.28,-30.96 156.92,-34.49 242.42,-37.5 z m -109.81,516.88 c 64.26,45.62 74.97,126.57 52.43,198.29 38.33,9.75 71.41,33.69 73.23,72.98 88.91,-7.14 180.52,-12.24 268.12,-1.67 -1.92,-1.78 -2.55,-4.99 0.25,-6.54 0.82,-0.45 1.64,-0.84 2.47,-1.28 -127.69,-189.51 -218.97,-408.59 -300.61,-620.63 -3.41,-8.85 1.17,-22.33 11.26,-24.78 26.22,-6.37 52.5,-12.35 78.82,-18.11 -4.64,-10.44 -8.64,-21 -12.28,-31.71 -3.68,1.03 -7.55,1.35 -11.79,0.48 -15.69,-3.25 -22.62,-20.52 -29.03,-32.99 -3.82,-7.45 -7.42,-14.98 -10.91,-22.56 -97.6,3.36 -186.89,4.73 -276.01,50.25 -2.19,1.11 -4.33,1.61 -6.38,1.67 -39.35,71.37 -53.84,157.49 -28.99,235.73 31.84,100.23 109.46,144.12 189.42,200.87 z m 29.26,180.25 c -0.13,-55.28 1.58,-108.85 -47.46,-147.09 -17.47,-13.62 -36.06,-24.76 -54.52,-36.1 43.53,57.47 52.06,130.57 23.18,195.76 26.32,-3.74 52.6,-7.88 78.8,-12.57 z m -57.19,42.15 c -6.64,0.97 -13.29,1.92 -19.95,2.84 5.27,13.81 8.5,28.64 10.36,43.18 5.93,-14.8 9.1,-30.02 9.59,-46.02 z m 29.75,58.91 c 0.11,-10.98 -0.43,-21.9 -1.96,-32.85 -0.81,-5.82 -2.4,-22.3 -6.64,-29.24 -3.79,0.6 -7.56,1.2 -11.35,1.77 -0.15,0.99 -0.3,1.96 -0.55,2.88 -5.63,21.57 -6.01,39.4 -15.7,59.66 10.7,-0.56 21.21,-1.16 31.41,-1.87 1.59,-0.1 3.2,-0.23 4.79,-0.35 z m 56.84,-4.46 c 11.8,-0.99 23.66,-1.99 35.6,-3 -0.89,-21.58 -15.74,-40.62 -35.76,-50.16 -4.52,-2.14 -9.07,-3.69 -13.64,-5.01 10.06,17.88 14.68,37.68 13.8,58.17 z m -33.33,-62.05 c -1.11,-0.13 -2.21,-0.25 -3.31,-0.35 -6.66,1.13 -13.33,2.23 -19.99,3.31 6.29,15.42 8.05,38.7 8.27,56.81 7.03,-19.38 11.94,-39.26 15.03,-59.77 z m -8.07,65.38 c 11.64,-0.88 23.38,-1.83 35.2,-2.81 0.36,-22.09 -6.03,-42.68 -18.73,-61.27 -0.09,-0.01 -0.19,-0.03 -0.29,-0.05 -3.23,22.05 -8.55,43.34 -16.18,64.13 z m 475.98,9.56 c 26.9,3.1 53.54,8.66 79.81,17 -14.08,-5.72 -27.34,-13.03 -41.79,-18.11 -31.95,-11.27 -64.59,-16.86 -97.87,-18.04 -0.27,1.7 -0.92,3.29 -1.87,4.72 20.89,3.74 41.51,8.43 61.72,14.43 z m -77.39,9.79 c 23.5,9.32 93.19,24.76 102.74,27.39 21.3,5.86 42.64,11.56 63.99,17.24 -51.89,-26.3 -108.68,-39.43 -166.73,-44.63 z m -809.01,82.99 c -3.01,-1.57 -1,-5.93 2.17,-4.77 91.99,33.41 174.44,87.85 239.69,161.07 16.09,18.06 31.11,37.14 44.77,57.11 5.69,8.31 12.89,24.55 20.18,33.56 -6.56,-8.33 -9.91,-20.9 -14.14,-31.12 -27.19,-65.49 -58.75,-128.83 -93.76,-190.49 -1.57,-2.76 1.48,-5.94 4.2,-3.86 68.28,52.33 113.94,123.72 158.26,196.26 2.38,3.88 -3.45,8.03 -5.82,4.11 -10.98,-18.22 -130.79,-198.56 -143.24,-184.33 -2.34,2.68 45.82,88.52 49.09,95.37 18.1,37.91 34.54,76.52 49.9,115.59 126.77,-38.71 253.65,-77.23 379.51,-118.77 64.39,-21.26 128.52,-43.26 192.42,-65.94 34.86,-12.36 69.84,-24.4 104.62,-37 22.3,-8.07 28.3,-7.36 38.99,-31.32 11.76,-26.38 3,-37.22 -6.68,-63.12 -47.51,-127.11 -101.94,-250.98 -163.08,-372.09 -36.03,-71.37 -70.42,-144.24 -91.96,-220.67 -0.5,0.41 -1.09,0.76 -1.85,0.91 -63.84,12.2 -128.68,17.9 -193.6,19.25 72.31,174.26 161.3,338.72 248.39,506.92 43.6,-15.1 88.91,-12.09 132.72,9.62 4.96,2.46 1.42,10.32 -3.56,7.85 -38.97,-19.3 -83.91,-25.68 -125.54,-10.49 0.94,1.82 1.87,3.64 2.81,5.44 14.24,1.51 28.43,1.42 42.73,3.63 52.21,8.03 100.19,28.9 143.7,58.45 4.28,2.9 -0.24,9.33 -4.69,7.47 -22.13,-9.26 -44.77,-16.88 -67.86,-22.84 30.44,12.96 59.75,29.32 87.52,49.87 6.71,4.97 -0.45,13.56 -7.2,11.45 -78.85,-24.75 -157.75,-48.94 -237.14,-71.92 -0.06,-0.02 -0.1,-0.07 -0.17,-0.09 -21.34,-1.04 -42.76,-1.18 -64.09,-0.6 -107.92,2.95 -215.79,12.72 -323.44,20.22 -171.42,11.92 -367.74,5.14 -513.06,106.24 103.89,8.33 201.51,48.56 280.88,113.65 -46.55,-59.64 -93.27,-118.85 -161.67,-154.62 z m 303.12,321.11 c -17.28,-13.64 -35.32,-26.07 -53.77,-37.82 20.05,14.54 37.91,30.89 49.05,49.32 1.61,-3.81 3.24,-7.62 4.72,-11.5 z m 439.16,-1189.32 c 1.64,0.81 2.92,1.83 4.07,2.91 3.93,-3.65 8.26,-7.12 12.94,-10.38 -12.33,-4.53 -24.73,-9.55 -30.93,-10.61 -20.83,-3.54 -42.1,-5.08 -63.21,-4.46 -16.17,0.48 -32.21,2.19 -48.16,4.86 -15.69,2.57 -31.12,6.25 -46.26,11.05 -6.71,-0.17 -11.54,1.4 -14.59,4.59 2.52,4.77 5.45,9.24 9.05,13.16 53.6,-35.78 119.32,-39.97 177.09,-11.12 z m -144.21,60.95 c 36.39,-27.27 79.32,-34.87 123.13,-33.22 0.01,-0.83 0,-1.69 0.02,-2.52 -40.71,-17.6 -85.23,-16.71 -124.73,2.63 0.45,0.29 0.87,0.54 1.34,0.89 2.68,1.98 1.62,6.22 -1.25,7.34 -1.4,0.56 -2.78,1.26 -4.15,1.99 2.04,7.6 3.96,15.22 5.64,22.89 z m 126.97,-4.93 c -1.85,-5.03 -2.93,-10.45 -3.42,-15.99 -42.76,-3.04 -84.47,0.8 -122.38,26.66 0.83,4.13 1.58,8.3 2.24,12.5 40.99,-8.67 82.15,-16.45 123.56,-23.17 z m 24.86,84.18 c -2.26,-13.59 -4.08,-27.29 -5.32,-41.14 -70.99,9.36 -141.62,20.79 -211.73,35.31 3.01,8.14 6.13,16.22 9.22,24.3 66.93,-22.82 137.34,-22.37 207.83,-18.47 z m -184.16,77.72 c 66.11,-0.87 131.12,-7.25 196.72,-17.04 0.3,-0.05 0.54,0.02 0.8,0.04 -4.06,-15.03 -7.6,-30.19 -10.56,-45.51 -64.71,15.27 -126.67,34.45 -186.96,62.51 z m 87.93,-48.18 c 19.17,-6.42 47.59,-17.45 73.22,-22.83 -0.62,-0.05 -1.26,-0.08 -1.88,-0.11 -27.02,-1.46 -54.12,-2.39 -81.17,-1.07 -34.24,1.67 -67.71,7.05 -100.3,16.83 5.86,15.27 11.84,30.48 17.96,45.59 29.94,-14.64 60.52,-27.82 92.17,-38.41 z m 504.89,756.69 c 8.62,-51.37 42.7,-94.17 68.06,-138.15 33.5,-58.07 62.09,-120.02 73.08,-186.61 11.03,-66.89 5.97,-136.04 -6.8,-204.4 -4.3,35.59 -13.77,70.71 -24.93,105.03 -23.88,73.35 -51.38,145.73 -77.51,218.3 -26.59,73.88 -53.35,147.71 -79.88,221.63 -14.85,41.35 -38.29,93.56 -13.71,135.78 20.24,34.74 68.88,46.52 104.52,55.09 4.17,1 6.91,3.42 8.46,6.35 6.66,1.9 13.24,3.69 19.62,5.17 15.89,3.66 31.83,6.94 47.82,9.92 -63.27,-58.79 -134.11,-136.33 -118.73,-228.11 z m -187.53,275.09 c 7.4,-4.05 13.69,-9.76 17.12,-17.76 5.81,-13.52 -0.16,-31.79 -14.58,-35.82 0.47,6.66 -0.55,12.24 -3.61,18.91 -1.43,3.13 -5.82,0.96 -4.77,-2.17 2.28,-6.86 2.82,-13.3 1.87,-20.37 -0.03,-0.21 0.05,-0.38 0.07,-0.57 -5.55,1.09 -11.01,3.22 -15.94,6.63 -9.63,6.64 -16.23,16.67 -17.16,28.46 -0.43,5.56 1,11.43 3.72,16.38 7.66,3.87 15.39,7.67 23.39,10.56 0.82,-0.28 1.65,-0.52 2.46,-0.82 1.6,-0.87 3.22,-1.91 4.85,-3.35 0.83,-0.74 1.76,-0.55 2.58,-0.08 z m 23.94,-22 c -2.93,11.86 -11.86,19.61 -22.51,24.48 -0.03,0.49 -0.09,0.99 -0.49,1.42 -1,1.08 -2.04,1.91 -3.05,2.78 6.26,1.65 12.71,2.63 19.5,2.31 27.05,-1.28 28.19,-35.41 16,-52.52 -3.47,-4.89 -7.85,-8.44 -12.65,-10.95 -2.77,0.71 -5.68,0.25 -8.32,-0.96 9.78,7.33 14.58,21.09 11.52,33.44 z m -167.04,40.19 c 6.24,22.65 17.13,43.09 32.48,60.64 -5.73,-14.66 -6.05,-31.13 -7.88,-47.4 -2.03,-5.75 -3.85,-11.59 -5.48,-17.51 -6.37,1.42 -12.72,2.89 -19.12,4.27 z m 36.43,-27.97 c 1.06,-0.12 1.93,0.07 2.83,0.2 14.18,-20.85 36.49,-38.33 61.34,-36.91 9.57,-17.71 29.34,-29.88 49.38,-30.18 27.93,-31.04 81.93,-2.6 112.53,11.3 1.36,0.63 2.66,1.26 3.97,1.89 0.21,-0.19 0.34,-0.42 0.59,-0.59 3.78,-2.55 7.69,-4.5 11.63,-6.19 -12.66,-7.36 -24.1,-16.68 -33.53,-28.58 -33.73,-42.57 -23.96,-95.1 -8.31,-142.92 47.53,-145.12 102.85,-287.99 153.98,-431.88 28.73,-80.83 52.06,-161.47 27.13,-246.72 -19.02,-65.03 -53.36,-130.81 -96.11,-183.31 -45.74,-56.17 -108.57,-86.18 -179.43,-96.87 -54.06,-8.17 -109.19,-2.39 -163.37,-6.56 -1.71,0.59 -3.41,1.17 -5.12,1.77 0.16,0.24 0.4,0.43 0.54,0.67 1.3,1.98 1.23,4.49 -0.24,6.35 -0.88,1.1 -1.76,2.19 -2.63,3.28 -2.27,2.86 -7.55,2.21 -8.65,-1.47 -0.23,-0.75 -0.45,-1.5 -0.68,-2.27 -0.31,-1.03 0.09,-1.85 0.78,-2.5 -19.62,7.71 -37.29,17.19 -43.29,28.57 -0.17,0.3 -0.44,0.57 -0.68,0.86 15.43,1.7 30.82,4.22 45.92,7.21 7.33,1.45 5.6,12.49 -1.82,11.48 -15.16,-2.06 -30.37,-4.29 -45.52,-6.06 0.02,3.5 0.01,6.99 -0.15,10.44 6.07,-0.93 12.11,-2.03 18.18,-2.91 12,-1.73 24.64,8.55 25.37,20.65 8.85,145.68 79.57,274.36 139.68,404.18 33.23,71.79 65.78,143.84 95.51,217.17 13.72,33.82 26.97,67.85 39.75,102.05 8.58,23 22.05,49.3 19.7,74.7 -4.97,53.85 -72.46,68.33 -113.8,83.72 -72.2,26.89 -145.17,51.74 -218.3,76.01 -140.6,46.67 -282.02,90.1 -425.46,127.02 5.37,5.27 10.62,10.67 15.69,16.28 5.74,6.36 3.91,17.44 -0.95,23.57 -25.88,32.62 -43.18,70.66 -64.61,106.15 78.23,-18.99 159.88,-30.58 237.02,-45.87 115.96,-22.97 233.6,-50.66 351.13,-63.73 z M 2402.8,2407.44 c 25.31,14.18 49.62,29.91 72.27,47.63 4.77,-1.47 9.55,-2.92 14.33,-4.38 -51.57,-86.42 -123.59,-158.73 -211.4,-208.78 -21.16,-12.06 -43.29,-21.38 -65.25,-31.73 -0.41,-0.19 -0.69,-0.33 -1.07,-0.5 4.84,2.46 9.86,5.16 12.51,7.02 36.42,25.51 66.32,58.89 94.1,93.27 15.82,19.58 30.99,39.67 46.49,59.49 13.28,11.93 25.94,24.64 38.02,37.98 z m 1051.98,99.99 c -18,-3.48 -41.14,-11.6 -65.25,-18.96 -1.85,0.72 -3.98,1.06 -6.45,0.76 -22.34,-2.7 -45.75,-6.99 -67.3,-15.17 -7.87,0.03 -15.29,0.9 -22.08,2.87 5.83,3.42 11.03,7.07 15.54,11.06 47.83,-2.71 91.4,12.64 137.13,26.13 34.96,10.3 66.57,14.1 103.08,13.93 0.99,0 1.94,-0.01 2.92,-0.01 0.34,-2.02 0.68,-4.04 1.05,-6.04 -33.05,-3.58 -65.96,-8.24 -98.64,-14.57 z m -60.54,646.13 c -6.54,-4.33 -10.16,-13.16 -6.67,-20.58 -0.82,-2.31 -1.56,-4.33 -2.21,-6.03 -6.69,-17.73 -14.89,-34.66 -26.44,-49.75 -8.16,-10.46 -17.29,-19.96 -27.37,-28.51 -8.57,-10.98 -16.6,-14.8 -24.11,-11.94 21.67,15.71 41.71,57.62 48.34,69.63 26.64,48.21 56.85,109.35 33.01,163.14 28.2,-19.1 16.6,-78.29 5.45,-115.96 z m -97.07,-108.27 c -1.04,1.38 -2.06,3.02 -3.07,4.7 7.94,7.51 29.32,30.93 30.38,32.39 36.74,50.66 75.61,130.03 52.12,192.22 3.01,-0.66 5.77,-1.59 8.25,-2.8 23.85,-55.46 -10.65,-120.95 -38.51,-169.07 -0.56,-0.97 -34.5,-51.89 -49.17,-57.44 z m -17.74,68.61 c 4.25,18.24 9.45,35.95 16.07,53.49 11.06,29.29 36.16,100.31 77.11,106.83 14.11,-71.34 -24.76,-169.5 -83.7,-217.79 -22.03,20.78 -16.51,27.27 -9.48,57.47 z m 870.39,-1513.72 c -115.49,29.73 -240.74,22.64 -351.65,-19.94 -4.37,12.5 -8.77,24.99 -13.2,37.47 9.49,16.5 17.3,33.57 22.85,51.28 3.28,0.21 6.53,1.7 8.79,4.62 35.94,46.37 -1.81,120.99 -19.35,168.68 -28.73,78.09 -59.3,155.55 -92.11,232.03 -32.82,76.48 -67.55,152.15 -104.16,226.89 -31.01,63.29 -60.51,133.95 -103.47,190.89 39.23,6.11 78.73,10.37 118.46,12.94 4.03,0.26 6.52,2.25 7.89,4.86 3.8,0.77 7.05,3.52 7.56,8.77 6.67,69.68 -9.12,146.7 -13.89,216.57 -0.46,6.84 -7.54,9.9 -13.36,9.71 -37.98,-1.3 -79.37,0.71 -118.48,-3.65 -2.04,58.18 -3.69,116.36 -4.86,174.56 -1.07,54.05 -1.62,108.1 -2.12,162.17 -0.4,43.45 -32.22,51.66 -66.93,75.24 -0.42,0.29 -0.85,0.45 -1.27,0.69 13.77,48.1 25.64,119.03 -18.57,132.21 -40.88,38.98 -88.8,-54.16 -101.96,-81.84 -18.22,-38.34 -72.91,-158.99 -13.36,-188.77 57.65,-28.83 108.8,65.87 123.35,105.91 0.04,0.12 0.09,0.25 0.13,0.37 16.96,-10.93 37.04,-21.77 44.66,-40.32 7.47,-18.2 0.38,-56.36 0.59,-76.31 0.54,-47.69 1.36,-95.38 2.48,-143.06 0.97,-42.29 2.17,-84.59 3.6,-126.87 -2.31,-0.56 -4.68,-0.97 -6.94,-1.6 -0.65,-0.18 -1.22,-0.55 -1.74,-0.98 -26.15,-0.46 -54.01,-11.96 -77.13,-21.2 -34.49,-13.78 -66.1,-32.35 -94.48,-55.96 -4.79,6.76 -10.24,12.72 -16.9,16.33 -19.38,10.53 -42.19,-0.22 -61.59,-6.25 -28.75,-8.95 -57.29,-19.22 -84.37,-32.44 -0.53,3.53 -2.57,6.81 -6.68,8.29 -61.02,22.07 -125.51,35.38 -187.14,56.32 -58.94,20.03 -116.99,42.67 -173.98,67.7 -53.5,23.5 -106.09,49.65 -162.6,65.39 -13.19,3.68 -21.72,5.06 -33.61,13.15 -18.83,12.83 -16.42,22.55 -19.47,43.94 -4.45,31.19 -8.59,62.56 -14.36,93.56 4.46,1.86 8.96,3.58 13.4,5.46 5.28,2.25 7.91,8.07 7.28,13.54 -10.19,87.77 -20.38,175.54 -30.57,263.31 -3.32,28.49 -4.14,63.27 -15.25,91.56 1.84,2.35 3.71,4.97 5.76,8.01 13.21,19.62 46.08,66.72 43.58,91.81 -1.77,17.73 -20.47,30.62 -38.58,40.82 5.76,10.29 11.68,20.31 19.3,29.5 5.5,6.64 12,12.61 17.83,19.06 49.63,-35.58 107.02,-60.46 161.73,-70.98 29.39,-5.65 70.27,-13.31 99.42,-2.28 25.05,9.48 29.95,33.24 36.18,56.79 5.48,20.69 17.74,47.54 4.35,66.8 -7.47,10.75 -22.99,17.23 -32.72,25.65 -14.43,12.49 -25.85,26.85 -35.35,42.84 27.47,-6.41 54.62,-6.95 83.49,-1.18 3.89,0.78 7.92,4.19 8.01,8.48 0.9,39.47 20.23,41.95 44.02,69.07 3.19,3.63 1.75,10.64 -2.25,13.07 -73.35,44.7 -68.73,131.54 -58.98,206.63 113.68,5.97 224.21,49.1 305.09,133.49 7.04,7.35 5.14,21.92 -6.93,22.64 -99.11,5.92 -194.09,26.61 -291.73,40.27 -6.6,45.54 -30.17,89.88 -50.15,130.75 -14.17,28.99 -27.92,71.91 -56.58,89.75 -35.12,21.88 -91.25,20.27 -131.38,27.07 -47.39,8.02 -99.13,23.28 -147.69,22.01 -7.83,16.83 -28.46,22.43 -45.56,16.93 -2.58,-0.83 -6.23,-2.52 -9.96,-4.77 -13.22,-0.76 -26.16,-4.59 -37.53,-12.43 -10.47,-7.22 -14.09,-18.35 -10.5,-28.45 -62.3,-15.97 -133.85,-64.34 -159.92,-117.91 -42.88,-88.08 -48.96,-203.71 -48.56,-299.64 0.04,-7.99 4.68,-15.98 13.53,-16.62 5.97,-0.44 11.94,-0.8 17.91,-1.18 -9.21,-70.38 24.43,-153.72 51.33,-215.23 23.05,-52.67 61.08,-121.83 117.37,-147.22 -2.69,-3.49 -5.3,-7.05 -7.86,-10.64 -1.72,1.7 -3.16,3.43 -4.17,5.19 -1.11,1.91 -3.29,3.07 -5.47,2.04 -1.11,-0.52 -2.21,-1.04 -3.32,-1.57 -3.15,-1.48 -4.97,-4.86 -4.69,-8.23 -4.34,-5.95 -8.68,-11.89 -13.03,-17.83 -2.2,-3.35 -6.74,-8.56 -9.44,-13.71 -36.69,-2.8 -72.25,-34.48 -98.32,-56.54 -40.69,-34.44 -75.76,-75.79 -105.76,-119.72 -63.85,-93.48 -105.72,-200.49 -137.38,-308.61 -75.2,-256.86 -108.57,-533.74 -36.64,-795.08 2.09,-7.6 9.56,-10.12 15.52,-8.67 16.95,-6.42 37.91,-6.16 59.58,-2.82 0.03,-0.05 0.05,-0.1 0.09,-0.15 9.24,-12.64 19.43,-24.11 30.26,-34.74 -31.43,-45.91 -20.17,-108.57 27.9,-138.58 26.37,-16.47 58.14,-20.77 88.24,-25.73 5.81,-0.94 11.62,-1.86 17.43,-2.8 -91.86,-2.21 -189.26,-8.46 -274.8,-37.06 -7.37,10.73 -21.86,17.98 -38.04,18.43 -4.53,0.13 -9.06,0.15 -13.59,0.25 25.94,34.38 30,93.96 27.77,134.1 -7.13,128.6 -11.35,256.56 -9.98,385.39 1.34,124.54 5.04,249.09 2.91,373.65 -1.47,86.52 6.09,186.75 -100.22,205.05 -49.93,8.59 -103.56,5.82 -154.04,6.99 -69.87,1.62 -139.75,2.37 -209.64,2.23 -122.96,-0.26 -245.93,-3.22 -368.77,-8.85 -108.38,-4.97 -238.716,3.7 -334.087,-57.16 -79.852,-50.94 -120.621,-141.54 -138.957,-231.36 -28.207,-138.19 -29.176,-285.8 -31.668,-426.38 -2.516,-141.61 1.859,-283.25 12.254,-424.49 1.094,-14.84 11.812,-21.41 23.195,-21.27 34.582,-25.91 132.637,-2.11 161.02,-0.11 93.984,6.59 187.699,7.32 281.781,7.89 16.292,-30.52 63.882,-31.13 100.742,-30.54 5.39,-18.92 26.83,-25.37 43.95,-35.41 28.77,-16.85 58.11,-32.61 87.99,-47.38 20.35,-10.06 42.13,-21.29 64.7,-31.66 -19.93,-9.84 -39.39,-23.45 -58.02,-38.83 -48.25,15.23 -119.1,2.68 -166.01,0 -40.05,-2.29 -52.52,-18.89 -61.49,-46.74 -21.495,9.83 -50.678,8.24 -67.655,-6.49 -34.516,-29.96 -44.137,-105.61 -52.176,-148.4 -8.539,-45.46 -25.094,-114.9 -11.133,-160.61 5.641,-18.46 20.625,-30.48 35.68,-27.81 -2.719,-20.71 -3.176,-41.07 0.535,-59.8 -3.261,-7.04 -6.515,-14.09 -9.711,-21.16 -28.691,-63.49 -58.59,-129.04 -77.289,-196.69 -5.715,-7.07 -7.965,-16.64 -6.269,-25.01 -0.672,-2.93 -1.496,-5.83 -2.121,-8.77 -1.336,-6.23 7.519,-9.57 11.457,-5.39 3.457,-2.22 7.734,-3.67 13.105,-3.72 65.981,-0.57 131.969,-1.21 197.947,-1.87 -1.42,-2.65 -2.76,-5.37 -4,-8.18 -6.56,-1.58 -8.42,-9.1 -5.26,-13.62 -10.77,-33.35 -11.25,-72.992 -9.81,-104.179 2.58,-55.949 17.79,-109.809 43.56,-159.469 52.44,-101.043 143.31,-176.703 249.87,-215.523 219.26,-79.848 465.53,5.992 574.22,215.351 16.66,32.102 77.26,216.77 44.42,275.24 0.63,0.9 1.02,1.89 1.17,2.96 85.71,-0.29 171.42,-0.41 257.12,-0.2 21.11,0.06 42.22,-0.06 63.34,-0.07 10.13,-6.95 23.58,-8.25 35.45,-0.04 187.73,-0.37 375.45,-2.62 563.17,-2.44 103.28,0.1 206.99,0.63 310.09,7.06 95.46,5.97 165.47,45.69 234.17,110.41 15.6,14.7 30.89,29.76 46.2,44.81 -17.62,-35.58 -31.04,-72.81 -41.8,-111 -7.98,-28.34 -28.49,-73.45 -10.67,-101.35 18.17,-28.44 66.38,-30.78 95.93,-32.149 7.91,-0.371 15.85,-0.422 23.8,-0.332 3.49,-13.258 7.24,-26.438 11.24,-39.528 -1.24,-3.261 -0.11,-7.09 2.76,-8.972 3.81,-12.047 7.85,-24.039 12.1,-35.938 9.55,-71.781 57.15,-147.57 97.76,-191.051 75.55,-80.918 180.61,-133.39 290.75,-145.039 224.54,-23.742 442.49,136.61 487.99,357.348 14.08,68.291 17.77,137.651 1.02,205.871 -10.57,43.09 -26.39,93.54 -53.28,132.63 20.15,6.95 39.51,16.82 57.55,30.82 154.72,119.99 -184.63,272.69 -271.19,294.98" /></g></g></g></svg>